<?xml version="1.0" standalone="no"?>
<!DOCTYPE svg PUBLIC "-//W3C//DTD SVG 20010904//EN"
 "http://www.w3.org/TR/2001/REC-SVG-20010904/DTD/svg10.dtd">
<svg version="1.0" xmlns="http://www.w3.org/2000/svg"
 width="2400.000000pt" height="1212.000000pt" viewBox="0 0 2400.000000 1212.000000"
 preserveAspectRatio="xMidYMid meet">
<g transform="translate(0.000000,1212.000000) scale(0.100000,-0.100000)"
fill="#000000" stroke="none">
<path d="M8988 11647 c-18 -4 -62 -14 -98 -22 -210 -45 -497 -185 -675 -329
-120 -98 -335 -341 -434 -491 -29 -44 -65 -95 -81 -115 -15 -19 -35 -51 -44
-70 -29 -60 -48 -94 -70 -120 -12 -14 -36 -57 -54 -95 -18 -39 -45 -92 -59
-120 -117 -232 -183 -364 -209 -422 -18 -37 -48 -104 -69 -148 -20 -44 -51
-109 -67 -145 -16 -36 -36 -78 -44 -93 -8 -16 -14 -34 -14 -40 0 -7 -20 -54
-45 -105 -25 -51 -45 -100 -45 -109 0 -9 -16 -39 -35 -68 -19 -29 -50 -91 -69
-138 -19 -47 -49 -116 -66 -154 -51 -107 -58 -124 -85 -197 -14 -38 -34 -83
-45 -101 -11 -18 -31 -61 -44 -96 -13 -35 -40 -99 -60 -143 -20 -43 -36 -84
-36 -90 0 -7 -18 -49 -40 -94 -22 -44 -40 -85 -40 -89 0 -13 -37 -83 -53 -102
-8 -9 -26 -51 -41 -94 -14 -43 -32 -90 -41 -105 -21 -39 -65 -143 -65 -155 0
-6 -7 -19 -16 -28 -15 -17 -70 -139 -97 -214 -13 -37 -33 -85 -63 -150 -49
-105 -74 -164 -74 -174 0 -5 -16 -42 -35 -82 -19 -41 -35 -81 -35 -90 0 -9 -6
-22 -14 -28 -8 -7 -18 -25 -21 -41 -3 -16 -13 -34 -20 -40 -8 -6 -19 -28 -26
-48 -17 -55 -118 -260 -152 -310 -66 -98 -93 -214 -58 -246 30 -27 53 -12 143
91 72 84 154 160 193 181 12 6 41 30 67 54 86 82 149 131 231 180 45 27 91 57
102 68 11 10 43 31 70 45 28 15 59 35 71 46 34 32 269 152 380 194 33 13 93
39 133 59 40 20 90 39 110 42 81 15 251 119 251 154 0 9 14 29 30 43 17 15 30
34 30 43 0 9 15 41 33 72 65 112 158 314 167 362 5 27 16 66 25 87 9 21 20 58
26 83 5 25 23 62 39 82 17 20 30 40 30 44 0 7 40 102 80 189 18 38 37 80 94
209 14 32 26 64 26 70 0 6 8 23 18 36 17 25 24 46 58 165 9 33 24 71 33 85 23
34 51 98 51 115 0 7 27 67 60 133 33 65 60 124 60 131 0 7 9 29 19 49 38 71
61 123 61 135 0 11 42 106 61 137 5 8 12 23 15 32 9 25 105 213 151 293 76
135 85 149 107 179 178 246 252 320 351 356 109 40 129 43 225 44 237 2 424
-152 632 -520 18 -33 47 -81 65 -109 18 -27 33 -53 33 -57 0 -4 36 -82 81
-174 44 -91 87 -185 95 -208 8 -22 26 -58 39 -78 14 -21 25 -41 25 -44 0 -4
23 -57 51 -117 53 -115 68 -151 119 -307 17 -52 40 -113 50 -135 43 -94 59
-134 79 -195 12 -36 21 -71 21 -78 0 -22 57 -136 78 -156 45 -40 65 -22 287
263 22 28 57 73 77 99 46 57 187 268 252 377 27 44 64 99 82 122 19 23 34 45
34 50 0 4 8 24 18 43 38 71 33 160 -14 253 -8 16 -14 37 -14 47 0 10 -9 25
-19 32 -20 14 -38 59 -61 148 -7 25 -23 56 -36 70 -13 14 -35 59 -49 100 -14
40 -31 80 -39 89 -7 9 -19 34 -26 56 -7 22 -28 60 -46 84 -19 24 -34 50 -34
58 0 17 -46 110 -59 117 -5 4 -19 32 -31 64 -12 31 -34 73 -49 92 -37 48 -42
57 -46 86 -1 14 -14 37 -28 52 -13 15 -34 45 -45 67 -11 22 -29 49 -41 59 -12
11 -35 43 -51 71 -16 28 -39 60 -50 70 -11 10 -20 24 -20 32 0 8 -10 24 -23
36 -12 12 -75 81 -139 153 -64 72 -131 143 -150 158 -18 14 -62 54 -98 88
-114 108 -391 262 -527 294 -37 9 -106 28 -153 43 -80 25 -97 26 -292 26 -114
0 -222 -4 -240 -8z m-53 -307 c3 -5 -10 -30 -30 -55 -19 -26 -35 -50 -35 -55
0 -5 -9 -12 -20 -15 -13 -4 -23 -19 -27 -36 -3 -16 -15 -36 -25 -44 -25 -16
-15 -35 17 -35 26 0 75 42 75 64 0 8 11 21 25 30 13 9 32 30 40 46 11 21 23
30 40 30 21 0 25 5 25 29 0 38 18 49 39 24 20 -24 83 -63 103 -63 8 0 23 9 34
21 47 52 117 71 152 40 22 -18 29 -19 186 -8 27 2 31 -2 39 -36 11 -45 30 -56
56 -33 24 22 58 20 78 -4 10 -11 26 -20 36 -20 10 0 28 -5 40 -12 12 -7 42
-15 67 -18 54 -6 68 -34 24 -50 -26 -10 -26 -11 -9 -30 16 -17 20 -18 38 -5
32 23 55 18 71 -14 9 -16 23 -31 32 -35 15 -6 15 -8 -2 -27 -22 -24 -8 -39 38
-39 36 0 47 -38 25 -86 -9 -18 -14 -40 -11 -49 8 -20 48 -19 64 0 7 9 19 14
27 11 7 -3 27 10 45 29 53 59 65 40 22 -40 -28 -54 -26 -89 4 -61 37 32 71 8
86 -60 6 -25 17 -36 66 -59 33 -16 60 -33 60 -37 0 -22 -22 -48 -40 -48 -23 0
-60 -33 -60 -54 0 -39 97 -65 127 -35 6 6 26 9 44 7 41 -4 60 -49 41 -101 -9
-25 -9 -42 2 -77 7 -25 11 -62 8 -82 -6 -49 6 -83 18 -53 5 11 9 37 9 58 1 51
24 48 50 -6 26 -53 27 -95 4 -104 -29 -10 -42 -24 -37 -38 8 -19 51 1 57 27 5
16 13 19 44 16 38 -3 38 -3 38 -48 0 -39 -3 -45 -25 -50 -40 -9 -42 -60 -1
-60 25 0 30 4 33 28 5 41 64 46 74 6 6 -21 3 -30 -11 -38 -62 -36 -73 -76 -21
-76 30 0 35 4 41 31 4 16 12 28 18 26 16 -5 21 -47 8 -60 -19 -19 -12 -37 14
-37 28 0 45 -30 45 -82 0 -22 6 -31 20 -35 33 -9 36 -50 10 -126 -27 -79 -41
-97 -76 -97 -19 0 -24 -5 -24 -24 0 -33 -60 -85 -92 -79 -18 3 -27 -1 -35 -20
-13 -27 -96 -72 -114 -62 -6 4 -8 18 -4 32 3 14 1 40 -5 59 -14 41 -45 46 -54
9 -10 -40 -66 -21 -66 23 0 9 -3 27 -6 39 -4 16 0 23 16 28 34 11 22 46 -20
60 -48 16 -59 98 -15 115 33 13 55 57 34 71 -24 16 -52 5 -69 -26 -19 -34 -89
-53 -76 -20 3 9 6 29 6 44 0 20 7 29 30 38 32 12 40 37 15 47 -21 8 -43 -3
-49 -22 -4 -13 -17 -17 -52 -15 -59 1 -81 20 -35 29 52 11 69 76 24 90 -65 21
-75 29 -108 89 -19 34 -44 70 -55 80 -27 25 -25 49 5 63 15 7 25 20 25 32 0
29 -42 47 -76 31 -37 -16 -44 -7 -44 60 0 91 -38 141 -78 101 -13 -13 -28 -18
-50 -14 -31 4 -32 6 -26 43 l7 39 -35 0 c-51 0 -70 -26 -38 -51 25 -18 25 -19
3 -19 -42 0 -86 79 -59 109 34 37 5 78 -36 52 -24 -15 -43 -2 -52 35 -8 30 16
74 39 74 29 0 18 59 -17 91 -44 39 -48 37 -46 -23 0 -35 -4 -54 -12 -56 -8 -3
-24 -16 -36 -29 -24 -26 -28 -24 -39 25 -7 36 -10 36 -84 6 -48 -20 -100 -18
-107 4 -17 54 -55 73 -82 42 -23 -27 -64 -25 -96 5 -34 31 -41 31 -70 0 -13
-14 -49 -36 -80 -50 -38 -17 -63 -35 -74 -55 -21 -38 -33 -38 -70 0 -40 40
-60 38 -113 -10 -24 -22 -50 -40 -58 -40 -18 0 -80 66 -92 98 -13 34 -29 17
-29 -32 0 -27 -6 -48 -16 -57 -22 -18 -46 -68 -39 -79 17 -28 70 -6 80 33 10
40 53 38 61 -3 4 -16 15 -32 25 -35 39 -13 19 -27 -26 -21 -29 5 -45 4 -45 -3
0 -6 5 -11 10 -11 6 0 10 -7 10 -15 0 -17 -25 -21 -35 -5 -15 24 -35 -3 -29
-38 5 -24 3 -33 -4 -28 -6 3 -22 -6 -35 -20 l-25 -27 -13 22 c-16 25 -32 27
-49 6 -7 -8 -21 -15 -32 -15 -12 0 -24 -12 -34 -35 -17 -42 -12 -55 22 -55 57
0 87 -47 45 -69 -15 -8 -24 -5 -45 14 -15 14 -30 25 -34 25 -18 0 -51 -32 -54
-53 -5 -39 -85 -49 -110 -14 -35 48 -68 22 -68 -53 0 -41 -5 -55 -31 -85 -22
-24 -27 -36 -17 -39 7 -2 21 -7 31 -10 10 -3 17 -15 17 -30 0 -14 5 -28 10
-31 24 -15 9 -43 -52 -103 -17 -16 -28 -37 -28 -54 0 -43 -19 -74 -56 -91 -54
-26 -37 -91 30 -117 31 -11 33 -25 7 -39 -14 -8 -23 -6 -37 10 -25 28 -68 22
-72 -10 -2 -13 -22 -42 -44 -65 -88 -91 -85 -86 -67 -99 26 -19 28 -40 8 -73
-17 -28 -17 -33 -4 -44 21 -17 19 -37 -5 -50 -26 -14 -25 -23 1 -35 12 -6 22
-14 22 -20 0 -5 -10 -14 -22 -20 -30 -14 -31 -99 -1 -115 11 -6 20 -14 20 -19
0 -18 -58 -71 -78 -71 -12 0 -23 -6 -23 -12 -3 -27 -6 -54 -7 -84 -1 -22 -13
-43 -37 -66 -35 -34 -36 -36 -46 -154 -10 -110 -22 -156 -60 -227 -5 -10 -7
-33 -3 -51 4 -24 2 -37 -8 -42 -40 -25 -48 -54 -26 -100 22 -44 20 -67 -13
-152 -5 -13 -9 -32 -9 -42 0 -11 -4 -20 -10 -20 -5 0 -19 -11 -32 -24 -13 -14
-36 -26 -52 -28 -35 -4 -65 -75 -48 -113 11 -24 -8 -66 -41 -94 -26 -21 -22
-60 8 -71 30 -11 32 -30 5 -61 l-20 -24 -20 25 c-18 22 -22 23 -33 9 -21 -27
-44 -29 -72 -7 -35 27 -45 13 -45 -63 0 -77 -16 -119 -44 -119 -13 0 -31 -9
-42 -21 l-19 -21 -21 27 c-34 43 -69 22 -84 -52 -16 -81 -14 -78 -59 -102 -48
-24 -132 -29 -150 -7 -6 7 -30 16 -52 20 -57 9 -96 -30 -101 -100 -4 -58 -31
-71 -36 -17 -4 36 -24 54 -108 96 -59 30 -73 60 -49 106 13 27 13 31 -5 54
-24 30 -26 93 -5 121 8 11 15 28 15 38 0 21 -28 24 -36 4 -3 -8 -13 -16 -23
-19 -19 -5 -38 -68 -26 -87 8 -13 -5 -80 -15 -80 -36 0 -26 135 14 191 9 13
16 38 16 56 0 20 9 42 24 58 13 14 32 55 42 90 22 76 34 83 34 21 0 -53 8 -76
25 -76 7 0 20 -10 28 -22 l16 -23 0 22 c1 12 -3 32 -8 45 -34 94 -17 185 28
144 24 -21 31 0 31 92 0 72 26 87 42 25 16 -62 58 -45 58 24 0 42 19 42 45 1
43 -67 57 -44 61 97 4 105 13 171 33 218 6 16 11 55 11 88 0 45 6 71 24 102
15 27 26 65 29 108 7 76 22 116 48 124 14 5 19 18 21 58 3 57 18 65 32 17 12
-42 37 -28 59 35 2 6 14 5 31 -3 38 -17 66 -6 73 28 3 16 16 36 29 45 22 14
23 16 8 51 -14 34 -14 38 6 59 34 36 56 176 34 210 -16 24 -15 26 15 52 21 18
31 37 31 55 0 17 8 33 20 40 11 7 20 24 20 38 0 40 11 70 26 70 8 0 14 -6 14
-12 1 -38 19 -43 50 -13 35 33 39 69 10 85 -23 12 -28 71 -7 88 21 17 55 -4
65 -40 20 -79 47 -28 63 122 18 168 24 188 58 197 30 7 41 20 41 47 0 10 11
29 25 42 14 13 25 34 25 48 0 16 9 31 23 40 25 15 117 28 117 16 0 -17 62 -70
73 -63 61 36 69 47 62 91 l-7 44 31 -7 30 -6 -6 53 c-5 50 -3 56 24 84 34 33
52 111 28 120 -24 10 -65 -43 -59 -75 6 -29 0 -37 -50 -79 -9 -7 -16 -25 -16
-41 0 -25 -5 -29 -47 -38 -87 -20 -105 7 -42 64 39 35 41 39 35 81 -6 42 -5
44 30 58 19 8 39 12 45 8 18 -11 39 18 39 52 0 23 -6 37 -20 44 -32 17 -25 54
15 81 24 17 35 32 35 50 0 30 17 49 42 49 10 0 29 7 42 15 21 14 25 14 49 -5
14 -11 35 -20 47 -20 27 0 109 50 110 67 0 6 14 20 30 30 59 34 111 150 85
189 -8 13 -15 28 -15 33 0 17 32 42 47 37 21 -8 133 57 133 77 0 3 -16 14 -35
26 -43 25 -44 39 -6 75 21 20 37 27 57 24 34 -4 36 -19 6 -33 -25 -11 -33 -27
-22 -44 11 -19 46 2 65 39 12 23 25 31 69 40 57 12 71 22 78 55 6 33 118 89
133 65z m-1313 -1309 c-9 -23 -92 -97 -92 -82 0 22 31 86 53 109 25 26 52 7
39 -27z m612 9 c34 -36 29 -63 -10 -58 -34 4 -49 27 -40 61 8 34 15 34 50 -3z
m136 -14 c0 -35 -12 -46 -42 -38 -25 6 -22 30 5 53 31 26 37 24 37 -15z m2611
-535 c28 -14 33 -22 69 -110 l22 -53 -27 -28 c-15 -16 -27 -31 -26 -34 3 -20
-1 -26 -19 -26 -11 0 -27 -11 -36 -25 -20 -31 -64 -35 -64 -5 0 13 7 20 20 20
11 0 20 7 20 15 0 8 -7 15 -15 15 -9 0 -20 12 -26 27 -17 44 -30 13 -36 -86
-4 -61 -10 -94 -19 -98 -20 -7 -54 16 -54 38 0 12 -12 25 -33 35 -32 15 -67
62 -67 89 0 25 34 36 58 19 26 -18 42 -11 42 18 0 12 19 38 43 60 38 36 42 44
42 86 0 59 41 76 106 43z m-2921 -66 c0 -17 -8 -26 -30 -33 -42 -15 -49 3 -15
38 31 32 45 31 45 -5z m-31 -106 c12 -36 7 -49 -18 -49 -27 0 -43 24 -35 54 9
37 39 34 53 -5z m2735 -265 c24 -23 20 -59 -9 -78 -55 -36 -97 -1 -69 58 19
40 51 48 78 20z m-68 -190 c-7 -25 -59 -107 -105 -164 l-21 -25 0 30 c0 17 11
51 25 77 14 26 25 53 25 61 0 18 38 46 64 46 15 1 17 -4 12 -25z m91 -120 c7
-18 -12 -64 -27 -64 -5 0 -10 11 -10 24 0 49 23 75 37 40z m-3037 -294 c0 -29
-11 -50 -26 -50 -17 0 -19 51 -2 68 14 14 28 6 28 -18z m-1006 -275 c3 -8 3
-22 1 -30 -16 -51 -16 -51 -25 -35 -9 17 -1 80 10 80 4 0 10 -7 14 -15z m772
-349 c7 -19 -24 -78 -38 -74 -24 8 -28 48 -8 68 24 24 39 25 46 6z m-1172
-522 c3 -9 6 -24 6 -35 0 -10 7 -19 15 -19 20 0 38 -37 31 -66 -4 -13 -13 -24
-22 -24 -15 0 -18 5 -28 53 -4 15 -13 27 -21 27 -9 0 -15 9 -15 24 0 30 9 56
20 56 4 0 11 -7 14 -16z m89 -178 c12 -30 -19 -118 -46 -133 -29 -15 -26 -17
-42 32 -7 23 -45 19 -45 -5 0 -10 -9 -24 -19 -30 -11 -5 -23 -19 -26 -30 -4
-13 -15 -20 -31 -20 -32 0 -32 27 0 42 14 6 26 20 28 32 2 13 12 22 24 24 17
2 23 12 27 44 10 74 46 75 47 1 0 -26 4 -33 19 -33 22 0 31 19 31 66 0 33 22
40 33 10z m-207 -20 c7 -30 -1 -46 -25 -46 -10 0 -22 -12 -28 -27 -9 -25 -11
-26 -18 -9 -6 13 -3 23 8 31 10 7 17 15 17 18 0 17 21 57 30 57 5 0 12 -11 16
-24z m-26 -196 c25 -13 15 -40 -15 -40 -14 0 -25 7 -28 19 -8 32 9 39 43 21z"/>
<path d="M8950 11096 c0 -7 -12 -21 -26 -31 -25 -16 -17 -54 9 -38 5 3 24 6
41 5 45 -1 61 32 30 62 -19 20 -54 21 -54 2z"/>
<path d="M9755 10940 c-29 -32 7 -104 42 -82 25 16 35 63 17 83 -22 24 -36 24
-59 -1z"/>
<path d="M9219 10869 c-9 -17 -8 -25 4 -36 20 -21 37 -8 37 28 0 35 -24 39
-41 8z"/>
<path d="M8603 10855 c-3 -9 -3 -18 0 -22 11 -10 57 7 57 22 0 20 -49 20 -57
0z"/>
<path d="M8900 10749 c-17 -30 -9 -63 17 -67 25 -4 38 26 29 64 -8 29 -31 31
-46 3z"/>
<path d="M8476 10655 c-12 -33 -7 -55 15 -55 17 0 20 5 17 32 -3 35 -22 48
-32 23z"/>
<path d="M7783 10005 c-3 -9 -3 -40 -1 -70 4 -49 2 -57 -19 -70 -28 -18 -29
-35 -5 -65 24 -29 52 -18 52 22 0 23 6 31 30 39 30 11 41 41 19 55 -6 3 -8 15
-5 26 10 41 -56 100 -71 63z"/>
<path d="M10622 9968 c-18 -18 -14 -38 8 -38 16 0 40 26 40 44 0 11 -36 6 -48
-6z"/>
<path d="M7693 9703 c-13 -5 -18 -65 -7 -76 7 -7 64 50 64 63 0 15 -34 23 -57
13z"/>
<path d="M7544 9506 c-18 -73 81 -148 106 -80 26 67 1 104 -70 104 -23 0 -31
-5 -36 -24z"/>
<path d="M7504 9175 c-4 -9 -2 -21 4 -27 15 -15 44 -1 40 19 -4 23 -36 29 -44
8z"/>
<path d="M7430 9053 c-27 -36 -35 -56 -35 -89 0 -74 31 -70 69 9 58 120 35
172 -34 80z"/>
<path d="M6997 8324 c-13 -14 -7 -65 9 -71 25 -9 39 13 28 44 -9 27 -25 39
-37 27z"/>
<path d="M6996 8204 c-11 -28 -6 -64 8 -64 23 0 37 26 30 54 -7 29 -29 35 -38
10z"/>
<path d="M15055 11639 c-71 -10 -139 -16 -150 -13 -12 3 -50 0 -85 -6 -36 -7
-87 -16 -115 -20 -27 -4 -93 -17 -145 -29 -52 -12 -113 -26 -135 -31 -76 -17
-230 -62 -290 -84 -33 -13 -89 -33 -125 -46 -106 -36 -335 -138 -487 -216
-123 -63 -176 -94 -268 -157 -11 -8 -58 -38 -105 -67 -47 -30 -110 -73 -140
-97 -30 -24 -88 -69 -128 -100 -264 -208 -574 -545 -756 -823 -91 -138 -114
-172 -136 -200 -11 -14 -34 -52 -50 -85 -16 -34 -40 -78 -54 -98 -15 -21 -26
-42 -26 -47 0 -5 -18 -42 -40 -82 -22 -40 -40 -79 -40 -86 0 -7 -8 -25 -19
-40 -28 -41 -109 -178 -158 -267 -99 -179 -118 -213 -159 -275 -197 -297 -375
-508 -543 -645 -40 -33 -98 -84 -129 -112 -68 -66 -111 -98 -139 -107 -11 -4
-41 -22 -65 -41 -23 -19 -47 -35 -52 -35 -4 0 -38 -21 -74 -46 -37 -26 -100
-64 -142 -86 -41 -22 -79 -47 -83 -54 -4 -8 -16 -14 -26 -14 -10 0 -54 -19
-97 -41 -44 -23 -99 -47 -124 -54 -25 -7 -70 -23 -100 -36 -30 -12 -102 -39
-160 -59 -58 -21 -116 -42 -130 -47 -14 -6 -50 -16 -80 -23 -30 -7 -75 -19
-100 -27 -25 -8 -63 -18 -85 -23 -73 -16 -189 -39 -268 -53 -42 -8 -83 -19
-90 -25 -6 -5 -39 -13 -72 -17 -33 -4 -74 -15 -91 -26 -23 -14 -50 -19 -102
-19 -39 0 -74 -4 -77 -10 -3 -5 -27 -10 -53 -10 -59 0 -301 -36 -368 -56 -28
-7 -71 -14 -96 -14 -25 0 -68 -6 -94 -14 -70 -20 -188 -46 -213 -46 -11 0 -50
-11 -87 -25 -36 -14 -78 -25 -93 -25 -54 0 -199 -57 -431 -168 -74 -35 -157
-75 -185 -87 -192 -89 -320 -156 -349 -184 -12 -11 -37 -26 -56 -33 -19 -6
-57 -28 -85 -47 -27 -20 -79 -54 -115 -76 -36 -21 -87 -58 -115 -81 -27 -24
-72 -62 -100 -85 -165 -139 -307 -275 -415 -398 -227 -260 -238 -274 -301
-365 -115 -168 -228 -343 -263 -410 -14 -27 -30 -54 -35 -60 -8 -10 -66 -118
-99 -185 -7 -14 -17 -33 -23 -41 -19 -31 -149 -287 -149 -295 0 -13 -135 -291
-209 -430 -12 -22 -46 -94 -76 -160 -31 -66 -62 -131 -70 -145 -42 -74 -66
-137 -63 -170 5 -55 23 -59 243 -49 394 17 618 60 760 143 39 22 77 44 87 48
98 41 286 212 399 363 70 95 160 247 183 311 36 99 228 470 298 576 20 31 43
69 52 85 8 16 30 45 48 64 18 19 40 44 49 57 9 13 36 44 60 70 25 26 50 59 57
75 6 15 16 27 22 27 6 0 35 22 63 48 66 61 236 178 302 207 27 13 67 37 89 54
21 17 43 31 47 31 5 0 42 16 83 35 41 19 78 35 82 35 4 0 39 15 78 34 39 19
116 46 171 61 55 15 111 33 125 40 30 15 232 65 265 65 12 0 42 7 66 16 44 16
124 32 299 60 52 8 109 19 125 24 17 6 78 15 135 20 58 6 130 14 160 20 30 5
91 14 135 20 44 6 107 18 140 27 60 15 76 18 252 47 50 8 109 22 130 31 21 9
54 20 73 25 19 5 71 18 115 29 44 11 118 33 165 50 47 16 103 34 125 40 22 5
72 22 110 36 39 15 86 31 105 36 34 10 76 27 130 55 14 7 57 24 95 38 100 38
402 184 435 211 8 7 35 23 60 35 25 13 69 43 98 66 30 24 59 44 66 44 6 0 29
15 51 32 21 18 80 60 131 93 114 75 199 139 216 163 13 19 183 151 205 159 6
3 38 37 71 76 50 61 116 131 286 307 13 14 31 39 39 55 8 17 30 44 47 60 18
17 41 48 52 70 12 22 39 58 60 79 22 22 46 54 55 70 8 17 28 45 43 61 14 17
39 51 53 77 15 25 39 61 54 78 14 18 34 45 42 60 23 40 119 174 171 238 48 60
64 85 130 200 52 90 253 397 320 487 173 234 233 307 346 424 73 76 164 158
201 184 37 25 81 58 98 74 16 15 59 47 95 70 36 23 76 50 90 61 39 30 217 126
300 162 41 18 80 37 87 42 7 6 27 14 45 18 18 5 65 20 103 35 123 46 188 65
265 75 41 5 100 16 130 25 30 8 140 22 243 30 282 24 751 -13 907 -71 19 -7
51 -15 71 -18 19 -4 73 -22 119 -41 46 -19 90 -35 97 -35 8 0 56 -20 109 -45
52 -25 97 -45 100 -45 3 0 28 -17 57 -38 29 -21 67 -44 86 -50 40 -14 119 -62
176 -107 22 -18 49 -35 61 -39 11 -3 38 -24 60 -46 21 -22 43 -40 47 -40 25 0
237 -196 341 -315 64 -73 146 -186 186 -255 24 -41 55 -91 70 -110 15 -19 35
-51 44 -70 9 -19 32 -60 51 -90 19 -30 34 -62 35 -71 0 -9 8 -27 18 -40 25
-34 62 -113 62 -133 0 -9 7 -31 17 -49 9 -18 22 -52 29 -77 7 -25 18 -61 25
-80 7 -19 20 -57 30 -85 27 -74 56 -184 64 -235 3 -25 12 -65 20 -90 8 -25 18
-67 24 -95 5 -27 15 -70 21 -95 8 -30 12 -165 14 -410 1 -388 -1 -407 -54
-590 -10 -36 -23 -91 -29 -123 -6 -31 -15 -65 -20 -76 -6 -10 -15 -36 -20 -57
-11 -48 -85 -257 -106 -301 -8 -17 -15 -37 -15 -45 0 -7 -7 -26 -16 -43 -9
-16 -38 -73 -66 -125 -63 -121 -84 -155 -126 -208 -91 -115 -71 -194 76 -299
91 -64 162 -122 257 -208 44 -40 100 -88 124 -107 24 -18 94 -83 155 -144 61
-61 130 -122 154 -135 l44 -24 35 21 c34 20 80 87 119 172 8 18 32 58 54 90
22 31 40 60 40 64 0 4 15 31 34 60 30 47 58 99 148 271 15 29 36 76 47 104 12
29 36 86 55 125 34 73 108 282 145 413 43 149 71 264 71 288 0 13 8 44 17 68
17 45 25 121 42 374 5 77 17 203 26 280 20 161 15 382 -11 494 -12 47 -15 94
-11 166 4 74 2 108 -9 134 -10 25 -13 58 -9 125 6 96 -3 132 -27 108 -33 -33
-63 14 -31 50 23 26 25 124 2 159 -9 13 -19 48 -22 78 -4 30 -13 61 -22 71 -8
9 -15 35 -15 57 0 23 -6 46 -14 52 -8 7 -17 28 -21 48 -4 20 -21 64 -38 97
-18 34 -39 81 -48 106 -12 33 -21 44 -34 42 -14 -3 -16 2 -10 26 4 21 1 34
-10 46 -9 9 -21 33 -27 53 -5 20 -24 50 -42 66 -46 43 -66 78 -66 114 0 25 -7
36 -30 50 -18 10 -30 26 -30 39 0 11 -11 33 -25 48 -15 16 -25 39 -25 57 0 29
-7 38 -72 94 -11 9 -17 23 -14 32 8 20 -24 72 -89 148 -29 33 -60 76 -70 95
-10 19 -33 48 -51 63 -19 16 -41 41 -48 55 -8 15 -32 45 -54 68 -22 23 -48 56
-57 73 -9 18 -76 93 -148 167 -73 74 -142 144 -153 156 -43 47 -93 87 -163
133 -40 26 -82 60 -93 76 -12 15 -42 37 -67 48 -25 10 -57 32 -71 46 -35 38
-142 113 -179 126 -17 6 -36 19 -41 30 -10 18 -101 69 -123 69 -7 0 -79 34
-162 75 -82 41 -155 75 -162 75 -9 0 -152 63 -205 91 -10 5 -27 9 -38 9 -11 0
-47 14 -80 30 -33 17 -90 37 -127 46 -38 8 -72 20 -78 25 -5 5 -20 9 -33 9
-24 0 -221 43 -278 61 -17 5 -38 7 -45 4 -8 -3 -37 1 -64 10 -58 17 -121 19
-184 4 -36 -8 -55 -6 -105 10 -135 44 -312 51 -531 20z m133 -298 c69 -28 124
-34 151 -15 30 22 55 11 47 -20 -8 -32 7 -41 37 -21 22 14 26 14 47 -5 30 -26
46 -25 72 5 15 18 28 23 44 19 17 -4 27 1 39 20 19 29 53 33 127 16 24 -5 55
-12 69 -15 14 -2 42 -20 61 -39 60 -58 118 -61 118 -6 0 36 6 37 30 8 l17 -22
25 27 c29 31 80 36 112 12 11 -8 30 -15 43 -15 22 0 71 -25 83 -42 14 -19 83
-38 114 -32 41 7 55 -9 21 -24 -67 -31 -18 -51 121 -50 133 1 144 -2 144 -37
0 -19 10 -28 44 -44 24 -10 68 -42 98 -70 29 -28 60 -51 69 -51 22 0 71 -55
67 -76 -6 -33 103 -79 189 -79 l72 0 15 -37 c9 -24 21 -38 32 -38 9 0 32 -16
51 -35 36 -37 52 -42 83 -25 24 13 115 -62 116 -94 0 -33 11 -44 38 -39 29 6
76 -23 76 -46 0 -60 20 -90 63 -93 30 -2 44 -9 52 -24 35 -71 92 -110 125 -87
24 17 40 6 40 -30 0 -10 9 -30 20 -45 30 -41 33 -170 6 -201 -27 -30 -8 -50
25 -27 13 9 32 16 43 16 24 0 76 -48 76 -70 0 -22 20 -40 45 -40 11 0 37 -9
57 -20 21 -11 43 -18 50 -15 18 7 102 -75 90 -87 -5 -5 -33 -8 -63 -6 l-53 3
-9 43 c-9 48 -13 49 -68 22 -52 -27 -56 -42 -23 -85 26 -34 31 -36 66 -31 35
6 42 3 75 -29 50 -48 73 -43 73 15 0 10 4 21 9 25 16 9 41 -25 36 -48 -11 -49
29 -151 66 -169 49 -23 63 -42 50 -67 -17 -31 -13 -75 8 -88 11 -7 24 -28 31
-47 13 -41 13 -41 40 -24 16 10 23 10 36 -4 17 -17 12 -38 -10 -38 -8 0 -15
-19 -19 -51 -4 -34 -14 -59 -27 -71 -17 -16 -20 -30 -18 -66 4 -60 26 -66 53
-17 10 20 27 41 37 46 22 12 24 35 3 43 -8 3 -15 12 -15 21 0 9 7 18 15 21 8
4 15 18 15 33 0 57 46 43 55 -17 3 -20 13 -52 21 -70 18 -41 18 -62 0 -62 -7
0 -19 -7 -27 -16 -16 -19 2 -34 42 -34 27 0 54 -23 73 -63 7 -12 23 -23 37
-25 18 -2 31 -13 42 -38 21 -42 35 -37 43 17 7 42 10 44 47 30 32 -12 51 -81
36 -134 -12 -45 -14 -45 -34 -7 -29 57 -66 23 -63 -58 1 -20 -5 -52 -13 -70
-13 -30 -12 -34 4 -43 22 -13 22 -31 -3 -79 -22 -43 -26 -105 -9 -162 11 -42
29 -51 29 -14 0 37 21 86 36 86 17 0 17 -16 0 -95 -10 -46 -17 -59 -29 -57 -9
2 -26 -2 -37 -8 -22 -12 -49 -2 -87 32 -24 22 -68 21 -68 -2 0 -8 9 -16 20
-18 34 -7 42 -20 50 -77 7 -56 25 -67 25 -16 0 41 22 55 75 48 34 -3 47 -1 54
11 16 29 39 5 44 -45 2 -26 8 -58 12 -70 11 -35 -30 -31 -49 4 l-14 28 -13
-28 c-12 -26 -10 -34 14 -77 32 -57 34 -85 7 -100 -23 -12 -27 -45 -6 -57 9
-5 15 -35 18 -88 4 -71 25 -158 49 -207 5 -10 9 -27 9 -39 0 -27 -24 -19 -28
9 -5 30 -18 27 -28 -5 -17 -61 -26 -470 -12 -549 11 -61 3 -114 -17 -114 -5
-1 -13 18 -17 42 -4 24 -15 48 -23 54 -13 10 -12 13 5 29 27 25 25 61 -5 87
-29 25 -32 53 -8 66 15 9 15 15 -2 87 -20 87 -21 115 -6 173 12 42 -6 163 -27
184 -18 18 -34 -74 -28 -158 9 -119 7 -214 -5 -261 -8 -28 -8 -47 -1 -59 6
-12 7 -25 1 -35 -15 -28 1 -108 22 -114 20 -7 25 -35 10 -50 -21 -22 -51 -124
-57 -194 -4 -42 -12 -83 -19 -91 -8 -9 -15 -61 -19 -140 -8 -182 -10 -190 -37
-211 -22 -16 -24 -25 -24 -98 0 -82 -11 -109 -38 -98 -8 3 -18 19 -22 36 -16
72 -65 66 -65 -8 0 -46 -2 -50 -30 -60 -27 -9 -30 -15 -30 -50 0 -22 -4 -42
-9 -45 -4 -3 -11 -34 -15 -68 -13 -123 -45 -163 -108 -137 -36 15 -60 -3 -56
-40 2 -20 10 -27 33 -31 40 -7 43 -32 8 -64 l-28 -27 -21 27 -21 26 -28 -36
c-27 -35 -57 -46 -70 -25 -4 6 -19 7 -35 4 -21 -5 -31 -2 -38 12 -16 28 3 55
33 47 29 -7 35 15 9 37 -11 9 -14 25 -11 53 2 23 0 70 -5 105 -5 39 -4 77 2
99 6 25 6 40 -2 49 -35 42 -74 -40 -71 -150 2 -43 -2 -87 -7 -98 -15 -28 -79
-26 -113 4 -13 12 -39 33 -56 45 -25 19 -29 28 -21 42 6 10 10 35 10 54 0 34
2 36 33 36 l32 0 1 71 c1 66 4 73 35 105 32 33 34 40 35 104 1 45 7 76 18 91
9 14 16 43 16 71 0 28 8 60 19 80 13 23 21 63 26 133 3 55 9 104 13 110 6 10
12 92 13 182 0 23 6 47 15 53 7 7 14 29 14 49 0 46 13 66 42 66 23 0 23 2 24
115 0 63 -3 120 -7 125 -4 6 -5 42 -3 80 7 114 7 118 -16 135 -19 14 -21 23
-15 57 3 23 2 44 -3 47 -15 9 -25 132 -13 153 6 10 11 13 11 6 0 -23 31 -45
46 -32 22 18 16 53 -16 94 -16 21 -30 44 -30 52 0 9 -7 12 -24 7 -30 -7 -42
19 -21 49 30 43 9 126 -52 200 -13 16 -23 34 -23 41 0 7 -11 27 -24 44 -13 18
-26 52 -29 76 -4 25 -16 60 -27 78 -11 18 -20 49 -20 68 0 19 -7 48 -15 64
-19 37 -19 56 2 71 16 12 16 14 0 38 -21 32 -22 61 -2 77 22 18 7 32 -25 25
-34 -7 -51 15 -43 55 3 18 -3 32 -21 49 -29 27 -34 68 -11 77 21 8 19 21 -5
27 -15 4 -20 14 -20 42 0 43 -15 75 -35 75 -20 0 -19 -26 0 -34 8 -3 15 -17
15 -31 0 -25 -3 -23 -50 24 -56 56 -65 91 -24 91 41 0 31 63 -11 70 -19 3 -31
12 -33 25 -2 11 -11 28 -19 37 -15 17 -15 43 3 140 9 53 -45 168 -80 168 -13
0 -26 7 -30 15 -7 18 -43 20 -49 3 -2 -7 -8 -9 -13 -5 -5 4 -4 11 2 15 6 4 14
31 18 60 8 59 1 63 -64 40 -28 -9 -35 -8 -45 5 -7 10 -19 17 -27 17 -9 0 -25
24 -39 60 -13 33 -31 63 -41 66 -9 3 -20 14 -23 24 -4 11 -17 23 -31 26 -25 6
-31 18 -14 29 22 13 11 64 -14 71 -20 5 -26 13 -28 42 -3 43 -32 54 -70 28
-32 -22 -52 -20 -96 12 -43 30 -112 117 -112 142 0 25 -82 71 -121 68 -32 -3
-36 0 -59 49 -35 74 -52 89 -74 68 -9 -9 -16 -32 -16 -50 0 -39 -11 -50 -37
-36 -10 5 -26 12 -35 15 -25 8 -22 35 5 46 16 6 9 8 -32 7 -47 -2 -55 1 -60
18 -8 28 -52 85 -66 85 -7 0 -20 9 -30 20 -10 11 -26 20 -37 20 -36 0 -18 29
25 41 81 21 110 38 97 54 -16 19 -51 19 -76 0 -27 -21 -128 -20 -160 2 -25 16
-27 16 -44 -7 -10 -13 -22 -20 -29 -16 -16 10 -41 -12 -41 -36 0 -10 -7 -21
-17 -25 -19 -7 -99 32 -107 53 -3 8 -19 14 -39 14 -18 0 -42 7 -53 15 -10 8
-25 15 -33 15 -8 0 -22 6 -30 14 -26 23 -118 45 -131 32 -8 -8 -17 -4 -32 17
l-20 27 -31 -26 c-28 -23 -36 -25 -84 -19 -50 6 -53 5 -64 -19 -14 -31 -35
-34 -44 -6 -14 45 -75 37 -75 -11 0 -28 -2 -29 -45 -29 -46 0 -60 14 -25 25
11 3 20 10 20 15 0 29 -142 62 -157 37 -13 -22 -42 -28 -76 -14 -18 8 -38 12
-45 9 -7 -2 -22 4 -32 13 -21 19 -50 14 -50 -8 0 -19 -85 -11 -118 11 -20 13
-24 13 -41 -2 -9 -9 -34 -16 -54 -16 -27 0 -43 -7 -59 -25 -12 -14 -32 -25
-46 -25 -14 0 -30 -7 -37 -17 -19 -25 -49 -9 -41 22 8 33 -17 44 -44 20 -11
-10 -26 -15 -34 -12 -8 3 -41 -7 -73 -23 -39 -20 -73 -30 -104 -30 -56 0 -71
-15 -67 -65 4 -48 -59 -77 -111 -50 -27 13 -35 13 -81 -2 -49 -16 -54 -16 -85
1 -33 18 -75 15 -75 -5 0 -34 -132 -20 -153 16 -4 8 -19 15 -33 15 -55 0 -90
51 -44 63 35 9 22 26 -26 33 -39 5 -49 3 -69 -16 -20 -18 -36 -23 -92 -24 -68
-1 -68 -1 -71 28 -4 36 16 50 45 31 29 -19 57 -19 73 0 7 9 11 17 9 18 -17 12
-64 27 -85 27 -91 0 -86 72 6 84 169 21 198 35 105 48 -54 8 -79 26 -69 51 8
21 23 21 48 2 40 -30 170 -13 194 26 12 19 10 25 -19 55 -44 45 -38 48 104 49
168 2 212 11 243 47 29 36 19 58 -27 58 -38 0 -36 11 6 31 29 14 36 14 48 2
12 -12 22 -12 74 1 101 26 169 19 199 -22 11 -15 107 -23 120 -10 11 12 -24
46 -67 65 -54 23 -48 53 11 53 9 0 23 7 30 15 9 11 22 14 40 10 38 -8 119 14
131 36 5 11 16 19 24 19 9 0 23 9 32 20 34 39 196 1 252 -59 29 -31 64 -40 76
-21 3 6 22 10 41 10 39 0 46 20 14 43 -43 30 -62 64 -44 81 21 22 95 20 152
-3z m2027 -501 c0 -17 -43 -25 -64 -11 -22 14 -2 32 32 29 20 -2 32 -8 32 -18z
m-3751 -340 c13 0 33 -9 46 -20 13 -11 37 -20 56 -20 39 0 104 -28 104 -45 0
-7 9 -20 20 -30 29 -26 10 -40 -29 -21 -70 37 -161 29 -161 -13 0 -28 20 -39
94 -51 86 -14 136 -45 136 -85 0 -6 -135 1 -210 10 -53 7 -70 -8 -42 -38 21
-22 29 -57 17 -69 -3 -3 -29 7 -58 23 -120 65 -127 62 -127 -47 0 -98 -20
-120 -81 -89 -28 15 -31 14 -63 -10 -42 -32 -44 -32 -61 9 -14 34 -15 34 -52
23 -21 -6 -60 -11 -87 -11 -30 -1 -51 -6 -53 -13 -3 -9 7 -13 32 -13 20 0 48
-6 63 -14 32 -17 70 -56 54 -56 -6 0 -25 -13 -42 -30 -21 -21 -41 -30 -63 -30
-52 0 -74 -21 -59 -55 11 -24 16 -26 46 -21 30 6 37 3 56 -24 29 -40 15 -56
-45 -53 -49 2 -75 -23 -75 -74 0 -15 -7 -37 -15 -47 -13 -17 -13 -22 2 -38 15
-17 15 -20 3 -28 -24 -15 -41 -11 -47 10 -7 27 -20 25 -27 -4 -3 -13 -8 -31
-12 -39 -3 -10 3 -17 20 -21 31 -8 33 -24 6 -69 -20 -34 -23 -35 -83 -35 -34
1 -68 5 -75 11 -21 17 -38 -8 -26 -40 7 -20 18 -29 39 -33 38 -7 45 -42 16
-81 -12 -15 -21 -35 -21 -43 0 -9 -13 -30 -28 -48 -43 -51 -62 -85 -62 -111 0
-32 -25 -90 -45 -107 -14 -12 -16 -25 -10 -77 6 -61 5 -65 -24 -99 -34 -39
-39 -75 -17 -119 13 -25 13 -32 0 -56 -8 -15 -14 -46 -14 -68 0 -49 -8 -71
-26 -71 -8 0 -35 -19 -59 -41 -58 -54 -98 -50 -93 8 3 34 1 37 -29 44 -42 8
-59 23 -67 55 -6 24 -10 25 -43 19 -61 -11 -83 20 -76 107 6 63 4 70 -16 85
-17 11 -21 22 -17 39 7 28 -12 74 -31 74 -22 0 -34 -45 -22 -80 21 -58 -13
-82 -49 -35 -36 45 -71 54 -96 22 -24 -30 -41 -34 -50 -12 -8 22 10 64 52 114
81 99 82 102 81 214 -1 67 4 116 13 142 9 22 18 58 22 79 4 22 19 61 32 88 29
57 29 59 4 87 -34 40 -11 107 38 113 19 2 28 10 30 26 2 12 14 33 28 47 13 13
24 31 24 40 0 8 6 15 14 15 20 0 46 39 46 67 0 16 17 35 56 64 l56 41 -21 22
c-12 12 -21 28 -21 34 0 21 28 13 48 -13 23 -28 44 -32 62 -10 10 13 10 19 -5
35 -22 24 -12 40 25 40 27 0 28 2 23 35 -4 27 -1 41 14 58 11 12 26 32 32 45
6 12 21 22 32 22 12 0 23 10 29 26 9 24 30 26 30 2 0 -5 10 -23 21 -40 25 -35
61 -32 94 8 12 15 40 29 69 37 59 15 78 37 53 65 -10 11 -17 35 -17 60 0 40
-1 42 -30 42 -35 0 -38 10 -11 34 18 16 20 16 34 -5 17 -23 47 -20 47 4 0 26
31 41 84 43 28 1 86 7 129 14 57 10 84 10 101 2 18 -8 28 -7 43 3 23 18 41 18
77 0 34 -18 110 -19 151 -1 22 9 37 10 57 2 22 -8 31 -6 47 9 34 30 26 44 -26
47 -41 3 -50 7 -62 32 -18 38 4 55 32 25 10 -10 28 -19 41 -19z m3756 -536 c0
-25 -24 -44 -55 -44 -42 0 -45 14 -7 34 27 15 62 21 62 10z m1394 -568 c10
-41 -2 -61 -25 -40 -22 20 -24 35 -7 52 18 18 25 15 32 -12z m-6866 -709 c5
-38 -15 -72 -34 -56 -27 22 -10 96 21 86 5 -2 11 -15 13 -30z m-32 -244 c49
-65 -28 -174 -97 -139 -38 18 -34 42 17 101 52 60 60 64 80 38z m-206 -168 c0
-29 -2 -29 44 -10 82 35 157 -53 99 -117 -14 -16 -15 -23 -3 -58 12 -35 11
-42 -3 -58 -21 -23 -22 -38 -2 -46 21 -8 19 -33 -5 -46 -13 -7 -20 -21 -20
-38 1 -81 35 -99 45 -24 9 69 10 70 52 77 67 11 66 10 59 69 -6 58 3 78 45 91
24 8 24 7 33 -21 5 -15 -1 -31 -19 -52 -33 -40 -34 -89 -1 -101 38 -15 49 -69
20 -98 -10 -10 -13 -24 -9 -37 17 -56 17 -68 -4 -96 -23 -31 -26 -56 -11 -80
8 -14 -158 -190 -180 -190 -5 0 -23 -12 -40 -26 -17 -15 -48 -30 -68 -35 -83
-18 -114 -28 -133 -45 -11 -10 -43 -19 -81 -23 -62 -6 -63 -6 -66 -38 -3 -32
-32 -47 -46 -24 -3 4 -22 11 -43 14 -43 7 -75 -16 -98 -69 -10 -25 -23 -34
-69 -48 -31 -10 -63 -24 -71 -32 -7 -8 -22 -14 -33 -14 -13 0 -22 -13 -33 -47
-17 -57 -36 -66 -52 -24 -14 38 -35 37 -57 -1 -14 -25 -13 -28 5 -42 25 -18
11 -34 -16 -18 -38 24 -53 -13 -23 -57 14 -19 14 -25 3 -32 -32 -20 -60 8 -74
74 -4 22 -11 28 -28 26 -12 -1 -30 2 -40 6 -28 12 -43 -9 -28 -38 18 -34 11
-72 -14 -72 -29 0 -43 -12 -65 -56 -13 -25 -27 -39 -39 -39 -19 0 -61 43 -61
62 0 23 -66 118 -80 115 -21 -3 -25 -78 -6 -116 31 -58 1 -170 -45 -171 -22 0
-119 134 -119 166 0 26 -7 39 -30 56 -21 15 -30 30 -30 50 0 17 -7 31 -20 38
-28 15 -35 -6 -20 -59 6 -23 8 -46 5 -52 -4 -5 1 -26 10 -46 10 -20 15 -48 12
-67 -2 -17 -1 -38 4 -47 6 -12 2 -22 -12 -35 -14 -13 -18 -25 -14 -45 5 -21 1
-31 -17 -43 -34 -24 -56 -20 -60 10 -5 42 -29 51 -64 25 -16 -12 -47 -24 -68
-28 -38 -6 -39 -6 -34 21 6 32 -11 86 -28 86 -6 0 -23 -11 -37 -24 -30 -28
-28 -47 9 -71 33 -22 30 -39 -13 -65 -49 -29 -83 -21 -83 20 0 18 -9 38 -22
50 -13 12 -31 28 -40 37 -16 15 -18 14 -24 -3 -3 -10 -9 -28 -13 -39 -5 -11
-14 -51 -21 -90 -16 -84 -22 -92 -54 -77 -18 8 -29 26 -39 59 -10 33 -20 49
-33 51 -28 6 -71 50 -79 81 -4 14 -15 35 -25 46 -10 11 -20 38 -22 60 -3 41
-32 62 -48 35 -15 -24 -1 -154 21 -196 15 -29 20 -47 14 -60 -5 -11 -9 -46
-10 -79 0 -58 -1 -60 -24 -57 -14 2 -42 -2 -62 -8 -43 -15 -82 2 -94 40 -10
30 -26 24 -65 -25 l-34 -44 -66 6 c-48 4 -72 12 -94 30 -23 19 -35 23 -60 17
-60 -13 -62 -28 -6 -45 42 -13 50 -23 24 -33 -29 -11 -64 -6 -101 14 -43 23
-52 24 -73 10 -13 -9 -11 -13 9 -29 34 -26 18 -41 -45 -41 -60 0 -94 13 -94
35 0 8 -12 22 -27 32 -35 22 -43 33 -36 49 8 20 -32 37 -47 19 -16 -19 -30
-19 -45 2 -15 20 -39 8 -32 -18 3 -10 -3 -25 -14 -34 -10 -10 -21 -30 -24 -46
-14 -62 -128 -12 -133 58 -2 23 -10 47 -18 53 -8 8 -14 31 -14 59 0 58 -56
125 -80 96 -7 -8 -10 -24 -7 -35 3 -13 -2 -25 -12 -33 -25 -17 -33 -50 -18
-71 13 -17 14 -17 31 9 26 39 50 16 41 -39 -5 -34 -3 -43 16 -57 23 -17 23
-17 4 -45 -11 -16 -19 -33 -20 -39 0 -5 -9 -19 -20 -31 -11 -11 -25 -29 -32
-40 -12 -18 -13 -18 -32 4 -27 31 -86 32 -78 1 5 -19 -36 -99 -50 -99 -3 0
-22 14 -43 30 -38 30 -39 30 -110 20 -39 -6 -75 -8 -80 -5 -4 2 -25 -9 -45
-25 -46 -36 -40 -36 -73 -1 -30 32 -72 29 -72 -5 0 -60 -112 -115 -170 -84
-40 22 -62 4 -55 -45 10 -61 -16 -87 -72 -74 -64 15 -65 15 -61 -48 3 -80 -14
-101 -61 -71 -25 15 -51 -4 -51 -38 0 -14 -9 -28 -22 -35 -13 -7 -29 -20 -36
-31 -18 -25 -40 -23 -44 5 -5 38 -62 37 -78 -2 -7 -17 -16 -31 -21 -31 -4 0
-13 -18 -19 -40 -17 -64 -72 -40 -85 37 -10 59 -14 66 -32 59 -9 -4 -24 1 -34
10 -24 22 -41 10 -28 -20 8 -17 7 -35 -5 -70 -17 -50 -16 -57 18 -94 21 -23
21 -24 2 -38 -38 -28 -85 -4 -78 39 2 10 -6 28 -17 38 -12 11 -21 24 -21 29 0
6 -4 10 -9 10 -19 0 -24 -147 -6 -184 9 -19 14 -43 11 -53 -3 -10 1 -31 9 -47
27 -50 9 -61 -46 -29 -50 30 -83 3 -87 -67 -4 -62 -26 -94 -72 -104 -40 -8
-57 -41 -34 -67 22 -24 5 -69 -26 -69 -16 0 -20 7 -20 35 0 19 -3 35 -7 35 -5
0 -18 3 -30 6 -15 4 -24 0 -33 -15 -15 -30 -4 -58 25 -65 21 -5 25 -12 25 -44
0 -85 -28 -112 -66 -65 -26 32 -26 32 -28 -62 l-1 -70 -38 -3 c-29 -2 -42 2
-52 15 -7 10 -17 14 -22 10 -4 -5 0 -14 10 -21 49 -36 8 -146 -64 -170 -22 -8
-33 -17 -30 -26 12 -46 11 -60 -5 -84 -12 -19 -20 -24 -27 -17 -14 14 -44 14
-53 0 -4 -7 3 -19 15 -29 18 -13 23 -27 23 -64 1 -59 -14 -77 -43 -50 -20 18
-21 18 -35 -1 -8 -10 -14 -24 -14 -30 0 -6 -11 -22 -24 -34 l-24 -22 -21 22
c-34 37 -44 13 -25 -60 14 -56 14 -65 1 -78 -17 -17 -97 -9 -97 9 0 5 -9 21
-20 35 -11 14 -20 38 -20 54 0 34 -9 59 -22 59 -10 0 -1 -100 13 -137 5 -14
17 -23 29 -23 25 0 27 -34 6 -85 -16 -37 -34 -43 -65 -23 -23 14 -81 -6 -81
-28 0 -15 -58 -84 -71 -84 -4 0 -24 13 -42 30 -19 16 -41 30 -49 30 -25 0 -50
25 -64 66 -18 51 -18 49 14 82 47 48 52 216 8 248 -24 17 -21 80 5 98 13 9 25
31 28 53 9 53 53 79 79 46 11 -15 35 -26 67 -32 32 -6 55 -17 64 -30 7 -12 17
-21 22 -21 19 0 7 31 -26 67 -37 41 -46 68 -49 149 -1 29 -5 56 -9 60 -13 14
-7 33 13 39 11 3 20 14 20 24 0 10 7 24 15 31 13 11 15 8 15 -14 0 -15 -7 -29
-15 -32 -29 -12 6 -83 42 -84 38 0 12 226 -31 261 -11 9 -16 21 -12 27 13 21
22 13 44 -38 39 -89 102 -54 102 55 0 42 2 46 23 43 17 -2 21 -9 19 -28 -3
-25 42 -74 62 -67 15 5 7 78 -10 98 -17 19 -18 43 -4 70 15 27 31 24 62 -13
44 -52 77 15 40 80 -27 50 -42 192 -19 192 9 0 18 -13 22 -30 9 -41 30 -38 41
7 12 50 26 51 58 3 46 -70 77 -31 61 76 -9 64 6 94 63 124 42 22 47 29 48 60
0 19 4 42 8 51 4 10 3 20 -3 24 -19 11 -12 35 10 35 49 0 76 -48 77 -138 1
-92 6 -109 29 -91 9 8 12 21 8 38 -11 42 -8 150 4 165 6 7 11 37 10 65 -2 44
2 56 24 79 15 16 27 39 27 53 0 35 68 105 85 87 19 -21 54 -138 61 -204 8 -75
32 -129 59 -129 28 0 30 29 6 86 -15 35 -21 67 -20 111 3 109 -12 207 -32 222
-18 12 -18 13 0 28 10 9 21 22 23 29 6 19 38 3 38 -19 0 -44 59 -57 91 -19 10
12 18 34 19 48 0 15 7 43 15 63 15 35 17 36 52 30 20 -4 44 -15 55 -26 21 -21
68 -5 88 31 6 12 26 22 52 26 24 4 53 16 65 27 12 12 29 18 37 15 9 -4 24 3
35 15 36 38 53 17 47 -54 -5 -59 -3 -65 24 -95 17 -18 32 -33 35 -33 15 0 4
209 -12 231 -10 13 -23 33 -29 44 -9 15 -21 20 -48 19 -36 -1 -56 21 -41 46
10 16 71 12 85 -5 7 -9 23 -15 34 -13 25 4 35 38 11 38 -21 0 -30 27 -15 45
19 23 44 18 68 -15 34 -45 92 -44 92 1 0 22 12 46 36 75 53 66 86 59 150 -31
l21 -30 44 24 c77 42 86 61 29 61 -44 0 -43 14 5 65 l44 47 53 -6 c77 -10 112
5 103 43 -5 23 -2 32 14 40 28 16 27 16 83 -40 49 -49 50 -51 32 -70 -16 -17
-16 -22 -4 -30 20 -12 58 34 62 75 2 22 12 35 36 49 47 27 72 5 72 -64 0 -60
7 -79 31 -79 17 0 19 8 19 76 0 90 9 110 54 118 19 4 46 16 60 27 33 26 70 9
110 -51 33 -50 63 -52 58 -3 -2 21 3 35 16 45 10 7 27 31 38 53 25 53 59 58
107 16 45 -40 77 -40 99 -1 19 33 61 42 72 15 4 -10 14 -13 36 -9 24 5 30 3
30 -10 0 -30 30 -31 56 -1 29 34 29 31 4 62 -23 30 -26 53 -6 53 8 0 20 2 28
5 28 10 44 -12 24 -33 -24 -27 -6 -37 66 -35 50 1 59 -2 73 -24 13 -20 19 -22
31 -12 17 14 2 39 -23 39 -25 0 -5 61 32 99 l34 34 57 -18 c64 -20 185 -6 211
24 48 58 55 63 81 57 75 -18 191 -19 216 -2 14 9 30 16 35 16 20 0 51 -44 51
-73 0 -32 16 -67 30 -67 6 0 10 33 10 73 0 73 16 117 44 117 30 0 49 26 37 49
-17 32 -1 47 73 70 63 20 124 43 163 63 13 7 37 8 60 3 60 -12 96 -11 100 2 3
7 -1 15 -9 17 -7 2 -22 7 -33 11 l-20 6 20 16 c15 11 34 13 73 9 43 -5 52 -3
52 9 0 9 12 20 28 26 15 6 39 18 54 26 15 8 52 18 82 23 95 15 134 30 165 61
31 30 40 62 21 74 -17 11 13 45 67 76 29 17 58 27 63 24 12 -7 -51 -75 -70
-75 -5 0 -10 -9 -10 -20 0 -31 23 -24 85 26 58 47 65 67 27 72 -30 5 -29 6 27
62 52 52 54 52 64 9 13 -51 115 -48 159 5 22 26 22 36 1 51 -18 13 -10 35 13
35 8 0 17 -7 20 -15 4 -9 19 -15 40 -15 36 0 44 13 17 28 -23 13 -9 42 21 42
30 0 47 -48 22 -66 -19 -13 -21 -40 -4 -50 15 -9 65 53 74 91 6 28 79 115 96
115 4 0 8 -17 8 -38 0 -21 3 -42 7 -45 14 -14 33 17 33 54 0 44 64 106 123
118 31 6 55 51 28 51 -6 0 -11 11 -11 25 0 16 6 25 15 25 9 0 15 -9 15 -25z
m6624 -300 c22 -22 7 -32 -23 -16 -23 13 -38 85 -25 128 6 25 9 21 18 -33 6
-34 19 -69 30 -79z m-8989 -805 c18 -7 18 -9 -9 -19 -36 -14 -108 -11 -113 6
-7 20 82 30 122 13z m8803 -1055 c4 -31 -21 -59 -46 -51 -24 8 -28 27 -11 57
13 26 53 22 57 -6z m722 -100 c0 -12 -4 -25 -8 -30 -5 -6 -19 -38 -32 -72 -12
-35 -27 -60 -32 -57 -16 10 -2 79 22 112 16 22 21 38 16 57 -4 14 -4 31 0 37
9 15 34 -19 34 -47z m-13565 -1821 c0 -19 -5 -29 -15 -29 -16 0 -25 28 -16 51
10 25 31 10 31 -22z m-75 -244 c14 -34 8 -60 -14 -60 -19 0 -29 33 -21 70 8
35 17 32 35 -10z"/>
<path d="M14635 11171 c-6 -11 26 -31 49 -31 9 0 16 9 16 20 0 21 -53 30 -65
11z"/>
<path d="M16264 11165 c-4 -10 -21 -15 -53 -15 -59 0 -80 -12 -62 -34 8 -9 25
-16 39 -16 13 0 30 -7 37 -17 18 -24 45 -9 45 24 0 18 8 33 20 41 12 7 18 17
15 22 -9 15 -35 12 -41 -5z"/>
<path d="M14786 10971 c-10 -11 -28 -22 -42 -25 -34 -9 -31 -36 4 -36 33 1 86
45 78 65 -7 20 -19 19 -40 -4z"/>
<path d="M14242 10913 c-30 -6 -24 -23 16 -46 36 -21 52 -16 52 18 0 20 -19
37 -38 34 -4 -1 -17 -4 -30 -6z"/>
<path d="M14380 10847 c0 -10 15 -16 50 -19 34 -3 59 -13 74 -27 25 -23 66
-26 73 -5 6 18 -75 52 -139 59 -48 6 -58 5 -58 -8z"/>
<path d="M14995 10780 c-4 -6 -2 -17 5 -25 14 -17 55 -5 55 16 0 17 -50 25
-60 9z"/>
<path d="M16100 10725 c-10 -12 -9 -20 4 -40 29 -44 60 -18 38 31 -13 28 -24
30 -42 9z"/>
<path d="M17196 10657 c-15 -11 -17 -21 -11 -60 7 -47 25 -72 33 -48 3 8 13
22 23 32 47 47 7 114 -45 76z"/>
<path d="M16661 10604 c-11 -25 -15 -26 -60 -21 -27 3 -52 3 -55 0 -11 -11 16
-33 40 -33 13 0 29 -7 36 -16 43 -53 60 -65 86 -62 39 4 35 32 -4 36 -27 3
-33 8 -36 33 -5 35 -2 39 32 39 31 0 51 17 43 36 -10 26 -68 17 -82 -12z"/>
<path d="M17256 10554 c-10 -25 -8 -29 33 -79 21 -25 44 -64 51 -86 12 -35 17
-39 46 -39 22 0 37 -6 43 -19 12 -22 71 -34 77 -16 8 20 -15 65 -33 65 -25 1
-46 19 -76 67 -15 23 -36 47 -47 53 -11 6 -20 17 -20 24 0 34 -62 60 -74 30z"/>
<path d="M16572 10453 c2 -11 14 -19 31 -21 23 -3 28 0 25 15 -2 11 -14 19
-31 21 -23 3 -28 0 -25 -15z"/>
<path d="M16867 10393 c-7 -36 1 -52 29 -59 29 -7 44 2 44 27 0 58 -63 85 -73
32z"/>
<path d="M16944 10288 c8 -49 10 -52 30 -45 39 15 31 87 -10 87 -26 0 -26 -1
-20 -42z"/>
<path d="M17142 10288 c4 -30 43 -33 43 -3 0 13 -8 21 -23 23 -20 3 -23 0 -20
-20z"/>
<path d="M17185 10171 c-3 -5 3 -12 14 -16 13 -4 22 -19 26 -45 9 -53 45 -59
45 -7 0 56 -61 105 -85 68z"/>
<path d="M17083 10143 c-20 -8 -15 -51 7 -63 21 -11 60 17 60 44 0 21 -37 32
-67 19z"/>
<path d="M17373 9863 c-26 -10 -13 -33 18 -33 24 0 30 4 27 17 -3 18 -24 26
-45 16z"/>
<path d="M17436 9785 c-14 -36 -7 -87 11 -83 27 5 51 54 37 75 -15 24 -40 28
-48 8z"/>
<path d="M17560 9740 c0 -43 14 -54 24 -17 10 37 7 57 -9 57 -11 0 -15 -11
-15 -40z"/>
<path d="M17710 9735 c-13 -16 -6 -35 15 -35 7 0 17 -10 20 -22 26 -91 75
-147 91 -104 8 22 -30 96 -71 139 -42 43 -39 41 -55 22z"/>
<path d="M17917 9404 c-18 -66 -18 -96 0 -92 21 4 31 66 15 94 -9 16 -10 16
-15 -2z"/>
<path d="M18327 9389 c-25 -15 -21 -31 17 -68 19 -19 40 -47 47 -62 13 -33 21
-36 39 -14 13 16 -9 65 -29 65 -5 0 -12 13 -16 29 -8 40 -35 62 -58 50z"/>
<path d="M18437 9059 c-23 -13 -22 -56 2 -68 24 -13 31 -5 31 35 0 38 -8 46
-33 33z"/>
<path d="M18060 8923 c0 -40 15 -62 32 -45 8 8 9 20 2 39 -13 37 -34 42 -34 6z"/>
<path d="M18106 8752 c-20 -39 7 -72 43 -52 27 14 26 31 -3 59 l-24 23 -16
-30z"/>
<path d="M18634 7615 c-8 -20 4 -65 16 -65 12 0 24 45 16 65 -3 8 -10 15 -16
15 -6 0 -13 -7 -16 -15z"/>
<path d="M18747 7613 c-8 -12 4 -103 13 -103 14 0 19 28 13 65 -6 35 -17 52
-26 38z"/>
<path d="M18357 7493 c-13 -12 -7 -63 7 -63 13 0 26 28 26 58 0 13 -22 17 -33
5z"/>
<path d="M18630 7350 c-19 -45 0 -65 40 -42 l28 16 -21 28 c-28 34 -32 34 -47
-2z"/>
<path d="M18758 7370 c-17 -41 -29 -91 -24 -99 4 -5 1 -20 -4 -33 -8 -16 -8
-41 0 -83 6 -33 12 -73 14 -90 1 -16 3 -38 4 -47 5 -51 20 -6 25 75 6 99 -5
302 -15 277z"/>
<path d="M18348 7113 c-48 -5 -51 -31 -6 -68 l32 -27 18 24 c19 24 21 70 3 73
-5 1 -27 0 -47 -2z"/>
<path d="M18515 6961 c-8 -26 13 -67 27 -53 13 13 6 64 -9 69 -6 2 -14 -5 -18
-16z"/>
<path d="M18580 6951 c0 -16 -6 -36 -13 -43 -32 -32 -37 -54 -19 -88 34 -68
57 -48 70 60 11 93 10 100 -19 100 -14 0 -19 -7 -19 -29z"/>
<path d="M18213 6743 c-30 -6 -29 -17 2 -31 29 -13 30 -20 10 -46 -8 -11 -15
-31 -15 -44 0 -13 -4 -31 -9 -41 -14 -24 2 -45 28 -36 24 7 51 53 51 86 0 12
8 31 17 41 37 41 -15 85 -84 71z"/>
<path d="M18479 6727 c-11 -24 42 -146 67 -154 22 -7 25 69 4 92 -11 12 -19
32 -18 44 4 35 -39 49 -53 18z"/>
<path d="M18677 6533 c-4 -3 -7 -18 -7 -32 0 -14 -11 -50 -25 -79 -34 -74 -33
-99 5 -107 48 -11 51 -3 47 111 -5 104 -8 120 -20 107z"/>
<path d="M18452 6395 c-24 -52 -7 -125 29 -125 14 0 49 72 49 100 -1 48 -59
66 -78 25z"/>
<path d="M18446 6101 c-9 -10 -16 -27 -16 -39 0 -12 -9 -26 -20 -32 -15 -8
-20 -21 -20 -50 0 -27 -8 -48 -26 -69 -15 -18 -24 -40 -22 -53 4 -27 38 -38
38 -13 0 24 46 98 70 113 15 9 20 23 20 51 0 22 5 43 10 46 15 9 12 52 -4 58
-8 3 -21 -2 -30 -12z"/>
<path d="M12869 10169 c-25 -15 30 -41 64 -30 24 8 42 9 62 1 32 -12 95 3 95
23 0 13 -202 18 -221 6z"/>
<path d="M13144 10125 c-24 -36 -10 -67 28 -63 37 4 53 26 44 61 -9 36 -49 37
-72 2z"/>
<path d="M12677 9823 c-22 -22 -6 -43 33 -43 41 0 52 14 28 38 -13 13 -50 16
-61 5z"/>
<path d="M12555 9780 c-10 -16 4 -30 29 -30 25 0 51 22 39 33 -10 11 -61 8
-68 -3z"/>
<path d="M12582 9478 c3 -7 17 -14 33 -16 15 -2 38 -10 50 -18 18 -12 24 -12
41 1 10 8 27 15 38 15 15 0 16 3 6 15 -16 20 -174 22 -168 3z"/>
<path d="M10664 7655 c-8 -20 4 -35 27 -35 23 0 26 35 3 44 -22 8 -24 8 -30
-9z"/>
<path d="M9945 7370 c-3 -5 0 -13 9 -16 21 -8 71 -1 71 11 0 14 -72 19 -80 5z"/>
<path d="M8940 7051 c0 -23 19 -32 43 -19 15 7 16 12 6 24 -17 21 -49 18 -49
-5z"/>
<path d="M9192 6979 c-24 -9 -28 -19 -13 -34 5 -6 11 -25 13 -44 5 -51 25 -50
49 4 29 65 9 95 -49 74z"/>
<path d="M7538 6708 c-40 -14 -38 -48 3 -48 55 0 94 38 53 54 -19 7 -22 7 -56
-6z"/>
<path d="M7812 6557 c-27 -75 5 -143 62 -135 31 4 36 72 7 88 -12 6 -21 21
-21 33 0 22 -16 47 -30 47 -3 0 -11 -15 -18 -33z"/>
<path d="M7837 6333 c-12 -11 -8 -50 6 -62 19 -15 27 -4 27 36 0 31 -16 44
-33 26z"/>
<path d="M6985 6020 c-9 -14 6 -60 20 -60 14 0 45 32 45 47 0 20 -54 31 -65
13z"/>
<path d="M6464 5936 c-7 -19 9 -72 22 -68 14 3 11 75 -3 79 -7 3 -16 -2 -19
-11z"/>
<path d="M5957 5086 c-8 -21 3 -56 18 -56 14 0 29 45 20 60 -9 15 -32 12 -38
-4z"/>
<path d="M5496 4792 c-7 -11 18 -81 46 -128 l23 -39 3 49 c2 37 -1 54 -16 70
-10 11 -22 29 -25 39 -7 18 -22 23 -31 9z"/>
<path d="M5760 4645 c0 -26 30 -34 59 -16 23 15 5 41 -29 41 -25 0 -30 -4 -30
-25z"/>
<path d="M5476 4504 c-10 -26 -7 -79 5 -91 6 -6 17 -22 23 -35 18 -36 46 -36
46 0 0 16 -6 35 -14 41 -8 7 -17 27 -20 45 -8 41 -31 64 -40 40z"/>
<path d="M12148 7452 c-19 -15 -57 -54 -83 -87 -27 -33 -79 -91 -116 -130 -37
-38 -80 -85 -96 -104 -51 -61 -136 -141 -156 -147 -37 -12 -267 -200 -294
-240 -29 -45 -14 -96 124 -404 8 -19 19 -42 24 -50 18 -31 69 -139 69 -147 0
-4 18 -34 40 -66 22 -31 40 -62 40 -68 0 -14 45 -109 88 -183 19 -34 52 -95
74 -136 22 -41 55 -98 74 -126 19 -29 38 -63 44 -75 6 -13 24 -44 40 -69 16
-25 33 -52 37 -60 4 -8 14 -26 24 -40 9 -14 51 -77 93 -140 92 -139 161 -229
225 -295 27 -27 76 -82 108 -122 53 -65 136 -144 368 -348 44 -39 100 -86 125
-106 50 -39 467 -317 515 -342 102 -54 379 -187 390 -187 8 0 35 -11 61 -25
26 -14 54 -25 63 -25 9 0 25 -7 35 -15 11 -8 30 -15 43 -15 13 0 36 -6 51 -14
15 -8 46 -17 67 -21 22 -4 50 -14 62 -21 12 -8 46 -19 75 -25 29 -5 105 -21
168 -35 233 -50 401 -73 605 -84 157 -8 490 3 585 20 30 6 100 14 155 20 55 5
129 17 165 25 36 8 110 23 165 34 104 21 379 111 451 148 22 12 77 34 121 49
98 33 173 84 173 118 0 25 -28 56 -51 56 -8 0 -39 25 -69 56 -54 56 -172 155
-224 189 -15 10 -33 30 -41 44 -18 33 -151 171 -333 342 -162 152 -199 173
-292 164 -73 -7 -267 -32 -360 -46 -84 -13 -540 -5 -600 10 -113 28 -241 44
-266 32 -23 -10 -31 -9 -63 14 -21 14 -46 25 -57 25 -10 1 -30 7 -44 15 -14 8
-52 14 -84 15 -45 0 -65 5 -80 19 -12 11 -56 31 -98 44 -42 14 -94 38 -115 54
-21 17 -48 34 -61 37 -12 4 -48 23 -80 42 -31 18 -84 47 -117 64 -105 52 -149
80 -175 108 -14 15 -39 33 -56 40 -16 7 -38 26 -48 42 -9 17 -30 37 -46 45
-40 21 -334 313 -354 352 -9 18 -22 36 -30 40 -13 8 -46 55 -103 146 -18 29
-51 78 -75 111 -24 32 -51 72 -60 88 -9 17 -25 40 -36 52 -11 11 -48 75 -82
141 -34 66 -75 140 -89 165 -58 95 -131 228 -131 238 0 5 -7 15 -16 23 -8 7
-31 47 -51 88 -19 42 -47 88 -61 103 -14 15 -28 44 -31 65 -4 26 -13 41 -28
48 -25 11 -48 67 -57 139 -3 27 -17 74 -31 104 -14 30 -25 64 -25 77 0 35 -55
136 -67 124 -7 -7 -14 -1 -21 20 -14 40 -47 41 -94 3z m258 -519 c-19 -150
-22 -249 -10 -268 9 -13 10 -25 4 -35 -5 -8 -10 -35 -10 -59 0 -27 -6 -52 -16
-62 -15 -17 -15 -21 5 -61 25 -50 13 -68 -45 -68 -38 0 -50 -13 -29 -30 23
-19 18 -73 -10 -114 l-25 -37 21 -27 c18 -23 20 -35 14 -81 -7 -58 0 -71 42
-71 12 0 27 -9 33 -21 9 -16 14 -18 26 -8 13 10 13 15 0 34 -18 27 -23 56 -13
72 13 21 87 -44 87 -77 0 -14 5 -31 12 -38 9 -9 7 -20 -7 -46 -28 -53 -49 -55
-74 -8 -14 25 -58 30 -67 7 -7 -16 -34 -21 -34 -6 0 24 -69 51 -129 51 -62 0
-62 0 -59 -26 2 -22 11 -29 47 -40 24 -7 54 -22 66 -34 13 -12 28 -19 33 -16
42 26 96 -43 85 -109 -6 -39 28 -62 74 -50 24 6 32 38 13 50 -11 7 -14 58 -3
68 3 4 14 -7 24 -23 11 -17 25 -30 34 -30 20 0 51 -49 47 -74 -6 -32 -22 -44
-33 -23 -12 21 -28 22 -43 3 -23 -29 -102 -30 -124 -1 -18 22 -31 27 -93 32
-52 4 -78 12 -91 25 -21 21 -48 17 -48 -7 0 -9 -9 -15 -25 -15 -18 0 -25 5
-25 19 0 20 -18 31 -51 31 -15 0 -19 -7 -19 -31 0 -30 2 -31 30 -26 40 9 47
-9 15 -39 -15 -14 -28 -24 -29 -22 -1 2 -16 24 -34 50 -17 25 -32 55 -32 65 0
10 -14 26 -30 35 -40 23 -43 77 -5 102 29 19 31 33 8 58 -24 26 -40 22 -46
-12 -4 -16 -10 -30 -14 -30 -15 1 -55 97 -49 117 4 13 -4 29 -29 53 -32 31
-35 39 -35 92 0 58 -6 68 -27 47 -16 -16 -33 -2 -33 26 0 14 12 34 30 48 35
30 37 38 9 55 -23 15 -23 57 1 57 10 0 16 -12 18 -32 2 -20 9 -33 17 -33 8 0
19 -9 25 -20 6 -11 16 -17 25 -14 19 8 19 30 1 37 -36 14 -27 153 12 168 20 8
23 14 18 37 -29 127 -18 153 44 107 57 -42 106 -32 78 16 -10 17 -10 23 -1 26
51 19 64 43 57 110 l-7 66 34 -8 c19 -4 45 -8 59 -7 14 0 33 -7 42 -15 25 -23
48 -9 48 29 0 38 34 78 66 78 12 0 27 7 34 15 8 10 31 15 67 15 l55 0 -6 -47z
m67 -694 c25 -38 37 -99 19 -99 -4 0 -12 15 -17 32 -11 37 -35 47 -59 23 -32
-33 -44 -4 -22 50 20 47 46 45 79 -6z m434 -631 c24 -22 31 -62 13 -73 -21
-13 -11 -100 14 -124 27 -25 73 -23 100 4 17 17 114 -12 131 -39 13 -21 -36
-73 -56 -60 -8 5 -32 10 -54 10 -22 1 -60 5 -85 9 -36 6 -49 4 -59 -9 -18 -21
-33 -20 -54 5 -13 14 -24 18 -40 13 -36 -11 -49 -45 -24 -61 20 -13 279 -32
305 -22 18 7 30 4 49 -11 15 -12 34 -18 44 -15 12 4 23 -2 34 -19 12 -18 29
-27 63 -32 26 -4 62 -18 80 -32 30 -23 34 -24 51 -8 21 19 33 20 50 4 7 -7 29
-13 49 -13 34 0 37 -2 37 -30 0 -28 -3 -30 -40 -31 -70 -3 -74 -4 -86 -25 -17
-33 1 -41 91 -45 90 -3 113 -14 108 -53 -2 -19 -14 -31 -40 -44 -21 -10 -38
-22 -38 -27 0 -10 141 -2 220 12 30 5 66 10 80 11 37 3 32 -26 -6 -33 -44 -9
-54 -18 -54 -45 0 -39 98 -49 194 -20 26 8 52 12 57 9 16 -10 9 -23 -13 -26
-15 -2 -24 -11 -26 -25 -4 -30 42 -43 66 -19 16 16 19 14 52 -24 38 -44 106
-70 186 -70 l40 0 0 -72 c-1 -70 15 -103 29 -59 5 17 14 19 68 19 34 -1 81 2
104 6 34 7 47 5 71 -13 17 -11 38 -21 48 -21 10 0 29 -10 42 -22 l24 -23 18
23 c10 12 26 22 37 22 10 0 26 7 37 15 16 12 23 12 57 -5 24 -13 58 -20 94
-20 30 0 55 -3 55 -7 1 -29 20 -36 37 -14 34 41 187 27 224 -20 18 -25 165
-11 207 19 49 35 88 52 119 52 37 0 51 -15 26 -29 -17 -9 -17 -10 0 -28 11
-13 17 -36 17 -66 0 -57 9 -63 54 -35 29 19 35 28 33 52 -2 35 45 57 86 39 12
-5 40 -6 62 -2 22 4 49 9 60 11 34 5 30 -31 -8 -71 -73 -76 -48 -159 53 -176
34 -6 45 -3 64 14 12 12 27 21 33 21 5 0 18 9 28 20 42 46 101 9 91 -57 -7
-48 9 -70 55 -75 26 -2 35 -8 37 -25 4 -27 27 -30 40 -7 13 23 29 10 41 -33
11 -40 -4 -62 -45 -63 -24 0 -49 -24 -40 -38 12 -20 -15 -82 -35 -82 -12 0
-42 -21 -69 -47 -87 -86 -105 -96 -160 -89 -29 4 -51 2 -55 -4 -9 -15 -48 -12
-71 5 -24 18 -84 20 -84 2 0 -7 10 -18 21 -26 29 -17 5 -35 -25 -18 -12 6 -35
10 -53 8 -26 -2 -32 1 -35 21 -3 25 -34 36 -52 18 -8 -8 -7 -15 7 -24 28 -21
22 -23 -89 -30 -58 -4 -133 -16 -166 -27 l-61 -19 -69 25 c-38 14 -83 25 -100
25 -27 0 -30 2 -24 25 10 40 -17 40 -58 1 -36 -36 -37 -36 -126 -36 -111 0
-135 9 -150 54 -6 20 -16 36 -22 36 -7 0 -8 16 -4 45 8 50 8 49 -57 38 -27 -4
-41 -12 -47 -28 -6 -17 -19 -24 -52 -28 -24 -3 -57 -13 -73 -21 -73 -39 -123
-16 -102 45 18 52 14 63 -22 56 -15 -3 -46 3 -74 15 -30 13 -58 18 -76 15 -33
-7 -47 5 -53 42 -3 22 -24 40 -96 77 -7 3 -20 -1 -30 -9 -49 -44 -78 -31 -81
37 -2 40 -15 52 -71 66 -53 13 -82 0 -117 -50 -20 -29 -34 -25 -72 21 -33 40
-34 42 -17 69 20 36 21 34 -9 66 -14 16 -25 39 -25 55 0 39 -31 45 -113 25
-71 -18 -123 -21 -132 -7 -3 5 -19 12 -35 16 -39 8 -38 30 0 44 38 13 38 19
-5 37 -44 18 -38 44 11 44 27 0 34 4 34 19 0 50 -26 66 -48 30 -14 -22 -27
-13 -117 79 -16 15 -34 22 -62 22 -47 0 -109 53 -93 80 19 31 -28 42 -67 15
-28 -20 -70 -10 -101 22 -12 13 -27 21 -32 18 -14 -9 -54 5 -44 15 14 12 113
20 120 9 4 -7 10 -7 18 0 7 6 31 13 54 17 46 7 62 21 41 35 -31 20 -58 20 -86
0 -27 -19 -30 -19 -83 -4 -30 8 -68 18 -85 20 -64 11 -80 63 -19 63 19 0 54
23 54 35 0 14 -37 35 -63 35 -41 0 -97 34 -97 59 0 16 10 20 65 26 47 5 73 13
92 29 34 29 26 61 -13 53 -19 -3 -29 2 -41 19 -12 19 -24 24 -58 24 -68 0
-150 81 -140 138 6 35 3 42 -14 52 -27 14 -26 30 4 58 38 36 80 35 80 -3 0
-38 11 -55 36 -55 20 0 22 7 19 51 -1 16 5 29 14 32 26 10 18 30 -24 66 -63
53 -51 101 24 101 27 0 47 -7 63 -22z"/>
<path d="M11951 5851 c-19 -34 -14 -71 9 -71 17 0 20 7 20 39 0 46 -14 61 -29
32z"/>
<path d="M13938 4722 c-16 -9 -28 -22 -28 -28 0 -24 -25 -31 -79 -24 -100 13
-204 -47 -136 -78 33 -15 31 -16 55 10 24 26 99 27 113 2 12 -20 35 -17 47 7
6 11 19 19 28 18 44 -4 47 -1 46 53 -2 59 -8 64 -46 40z"/>
<path d="M13419 4633 c-19 -51 20 -105 51 -68 7 8 19 15 26 15 22 0 16 34 -9
58 -31 29 -55 28 -68 -5z"/>
<path d="M13545 4521 c-8 -27 1 -41 26 -41 16 0 20 6 17 27 -4 34 -33 43 -43
14z"/>
<path d="M15572 4413 c-37 -15 -45 -103 -9 -103 21 0 68 62 65 85 -3 20 -30
29 -56 18z"/>
<path d="M15436 4263 c-59 -50 -62 -60 -23 -77 43 -17 50 -13 77 43 36 78 15
91 -54 34z"/>
<path d="M13915 4249 c-7 -11 31 -59 47 -59 18 0 33 51 17 61 -19 12 -56 11
-64 -2z"/>
<path d="M14142 4164 c-41 -29 -29 -64 22 -64 62 0 77 21 39 54 -34 30 -33 30
-61 10z"/>
<path d="M15695 6269 c-242 -12 -321 -35 -605 -176 -160 -80 -177 -91 -283
-182 -34 -30 -79 -66 -100 -82 -120 -87 -276 -240 -287 -279 -24 -89 43 -103
210 -43 97 34 364 46 453 19 28 -9 97 -25 152 -36 125 -25 237 -61 340 -110
44 -20 105 -48 135 -61 30 -13 62 -28 70 -35 8 -6 40 -25 70 -41 172 -92 368
-225 455 -308 18 -16 65 -57 105 -90 144 -119 210 -183 575 -554 214 -218 327
-319 404 -363 31 -17 85 -55 121 -83 36 -28 135 -92 220 -140 170 -98 246
-130 435 -183 207 -58 263 -65 490 -59 199 6 188 4 412 72 91 29 226 91 278
130 17 12 41 26 54 30 14 4 47 25 74 46 27 22 53 39 57 39 5 0 35 21 67 48 32
26 71 56 87 66 83 53 386 389 386 428 0 38 -61 59 -91 32 -17 -16 -105 -41
-259 -75 -107 -24 -301 -26 -380 -4 -30 8 -103 23 -161 34 -58 11 -128 30
-155 44 -27 14 -72 32 -100 40 -28 8 -84 32 -125 54 -41 21 -92 46 -114 55
-57 24 -128 66 -219 129 -43 30 -113 76 -155 103 -42 27 -101 69 -131 95 -30
26 -71 58 -90 71 -19 13 -41 32 -48 42 -7 10 -28 25 -45 34 -18 10 -104 88
-192 174 -88 86 -182 177 -210 201 -115 101 -297 267 -398 362 -59 56 -117
105 -129 110 -12 4 -43 28 -70 53 -27 25 -65 52 -86 61 -20 8 -54 29 -75 46
-21 16 -57 36 -80 44 -23 8 -51 23 -62 32 -11 10 -42 27 -70 37 -27 10 -70 30
-95 44 -64 37 -122 59 -204 76 -39 8 -88 21 -108 29 -33 13 -94 18 -318 28
-36 2 -128 0 -205 -4z m413 -251 c16 -16 15 -50 -2 -73 -9 -13 -12 -36 -9 -75
6 -63 -37 -162 -73 -168 -32 -6 -39 -20 -20 -41 17 -19 17 -21 -5 -50 -27 -37
-27 -37 -55 -10 -33 31 -74 5 -74 -46 0 -54 -46 -50 -83 6 -31 48 -32 52 -11
70 12 10 14 23 9 57 -6 41 -4 46 34 87 23 25 41 51 41 59 0 25 89 108 129 121
13 4 29 22 37 41 15 36 57 47 82 22z m-422 -33 c12 -18 25 -25 49 -25 47 0 60
-20 42 -63 -8 -19 -20 -38 -26 -41 -18 -12 -51 -83 -51 -111 0 -32 -17 -32
-52 2 -36 34 -98 25 -108 -17 -3 -14 -14 -27 -25 -29 -11 -2 -29 -10 -40 -17
-23 -16 -51 -18 -60 -4 -3 5 10 16 30 24 30 13 35 20 35 48 0 22 10 46 28 68
16 19 32 48 36 63 4 17 20 36 42 49 19 11 41 33 50 49 18 36 29 36 50 4z m781
-99 c24 -71 71 -89 113 -43 21 22 22 22 36 3 21 -29 17 -64 -11 -90 -18 -17
-26 -37 -29 -73 -5 -45 -12 -58 -56 -103 -33 -34 -50 -60 -50 -76 0 -37 -47
-112 -81 -130 -16 -8 -29 -21 -29 -29 0 -8 -4 -15 -10 -15 -5 0 -20 -12 -34
-27 -21 -22 -27 -24 -40 -14 -23 19 -20 58 4 66 19 6 37 46 32 72 -1 6 9 28
23 49 29 43 33 74 8 74 -30 0 -47 -17 -49 -47 -1 -15 -3 -31 -3 -35 -1 -4 -16
-8 -33 -10 -28 -3 -34 -8 -38 -33 -6 -38 -52 -48 -70 -16 -7 14 -21 21 -41 21
-18 0 -32 6 -36 16 -3 8 -16 20 -29 25 -26 9 -33 39 -10 39 8 0 22 -10 31 -22
13 -19 18 -21 33 -10 9 7 32 19 50 27 36 17 44 53 16 75 -19 16 -15 70 6 80 8
4 28 14 44 21 19 9 36 30 48 59 11 25 26 49 34 53 8 4 14 19 14 32 0 19 10 30
40 45 21 11 44 29 50 41 18 33 51 21 67 -25z m-279 -120 c-3 -48 -5 -51 -31
-54 -60 -7 -69 36 -19 90 37 38 54 26 50 -36z m626 -146 c-11 -51 11 -73 64
-66 33 4 53 1 66 -9 11 -8 30 -15 42 -15 26 0 82 -70 91 -112 3 -15 12 -33 19
-39 8 -6 14 -22 14 -34 0 -12 7 -28 15 -35 16 -13 55 -5 55 12 0 6 13 8 35 4
31 -6 36 -4 50 24 9 17 20 28 25 25 13 -8 13 -41 -1 -66 -5 -11 -15 -48 -20
-82 -6 -34 -19 -77 -30 -95 -25 -43 -25 -72 0 -72 13 0 21 8 23 22 6 47 88 35
88 -13 0 -32 -24 -49 -43 -30 -31 31 -47 13 -41 -48 6 -53 4 -61 -15 -72 -14
-10 -21 -24 -21 -46 0 -46 18 -50 35 -9 14 32 20 36 53 37 78 2 92 5 108 28
l16 22 23 -21 c13 -12 29 -20 36 -19 33 7 67 -12 77 -41 13 -36 16 -37 54 -5
42 35 68 33 68 -5 0 -31 37 -80 61 -80 17 0 69 -60 69 -79 0 -9 -9 -24 -20
-34 -27 -23 -14 -48 35 -72 20 -9 46 -27 57 -41 15 -17 28 -22 45 -18 25 7 28
2 38 -59 5 -33 3 -38 -20 -49 -32 -14 -31 -27 5 -56 32 -25 50 -22 50 8 0 11
11 27 25 36 13 9 27 24 30 35 4 11 22 23 43 29 20 5 48 17 61 26 24 17 24 17
17 -12 -4 -16 -9 -50 -12 -76 -2 -26 -13 -66 -24 -87 -25 -49 -25 -46 2 -71
39 -36 77 -21 128 48 43 58 142 19 117 -47 -17 -47 12 -75 73 -68 40 5 48 2
66 -20 26 -33 68 -26 78 12 7 29 22 31 71 11 40 -17 44 -35 14 -62 -16 -14
-20 -28 -17 -64 3 -44 2 -45 -39 -65 -65 -31 -71 -41 -45 -68 25 -27 28 -50 8
-66 -10 -9 -16 -8 -26 4 -27 32 -60 13 -60 -35 0 -64 -196 -88 -237 -30 -8 11
-21 20 -30 20 -9 0 -24 7 -34 16 -10 9 -25 14 -34 11 -22 -9 -19 -27 5 -27 11
0 20 -7 20 -15 0 -18 -37 -20 -43 -2 -3 9 -9 7 -24 -6 -19 -17 -90 -17 -133 1
-8 3 -26 6 -40 6 -20 1 -26 7 -28 31 -4 31 -37 75 -57 75 -29 0 -100 48 -105
71 -5 18 -13 24 -33 24 -18 1 -42 15 -71 43 -45 44 -89 55 -100 27 -8 -23 -34
-18 -38 7 -2 14 -12 24 -27 28 -33 8 -42 35 -10 28 13 -3 32 -9 41 -13 23 -9
43 33 34 69 -8 34 -30 33 -56 -4 -26 -36 -30 -37 -65 -4 -24 22 -26 30 -21 68
8 53 -2 64 -69 68 -50 3 -50 3 -53 40 -3 30 1 40 22 54 16 10 26 26 26 40 0
13 7 29 16 36 75 60 90 91 58 122 -25 26 -40 19 -79 -36 l-38 -52 -13 26 c-7
14 -20 28 -29 32 -8 3 -15 17 -15 31 0 40 -28 43 -60 6 -27 -31 -85 -59 -97
-47 -3 3 2 23 11 45 20 43 17 78 -5 72 -76 -19 -108 10 -78 72 27 56 21 67
-19 37 -41 -31 -108 -34 -104 -5 14 90 58 175 107 205 19 12 35 28 35 35 0 19
-58 65 -81 65 -22 0 -39 -32 -21 -38 7 -2 12 -15 12 -30 l0 -25 -23 21 c-20
19 -28 20 -60 11 -36 -10 -46 -22 -28 -33 5 -4 6 -18 2 -34 -8 -30 -71 -43
-110 -23 -23 13 -27 78 -5 102 28 31 28 81 1 107 l-24 23 -27 -31 c-19 -23
-24 -38 -20 -56 5 -19 1 -26 -20 -34 -14 -5 -26 -14 -26 -20 0 -20 -31 -9 -40
14 -10 28 -48 39 -115 34 l-40 -3 2 43 c1 23 13 63 27 90 14 27 29 79 35 122
9 66 14 78 44 105 45 40 83 102 91 146 5 31 13 39 57 59 28 13 55 32 60 43 16
29 70 -43 63 -83z m446 -1061 c0 -11 9 -33 21 -48 32 -43 22 -66 -26 -66 l-40
0 4 65 c3 61 14 85 33 74 4 -3 8 -14 8 -25z m1546 -605 c19 -15 34 -30 34 -35
0 -14 -59 -40 -103 -45 -22 -3 -45 -6 -51 -7 -26 -5 -13 34 25 71 49 49 50 50
95 16z m414 -43 c-14 -27 -34 -22 -38 9 -5 28 18 44 36 26 11 -11 11 -18 2
-35z m-521 -95 c10 -12 5 -17 -29 -27 -45 -14 -65 -4 -54 24 8 21 67 23 83 3z
m-85 -48 c10 -39 7 -48 -16 -48 -24 0 -68 36 -68 57 0 25 77 17 84 -9z m-199
-22 c27 -19 4 -46 -39 -46 -52 0 -74 33 -33 50 32 13 51 12 72 -4z"/>
<path d="M15652 5917 c-23 -25 -33 -127 -12 -127 13 0 60 102 60 129 0 28 -21
27 -48 -2z"/>
<path d="M16940 5484 c-17 -19 -2 -89 19 -89 20 0 32 52 19 81 -13 28 -21 30
-38 8z"/>
<path d="M17072 5258 c-15 -15 -16 -95 0 -104 19 -12 39 28 36 70 -3 42 -16
54 -36 34z"/>
<path d="M16566 5217 c-16 -11 -15 -15 13 -41 34 -33 49 -20 37 29 -7 28 -23
32 -50 12z"/>
<path d="M17171 4787 c-35 -17 -37 -35 -6 -49 33 -15 61 8 50 41 -7 24 -11 25
-44 8z"/>
<path d="M17493 4750 c-38 -15 -33 -83 4 -78 35 4 62 51 43 74 -14 16 -16 16
-47 4z"/>
<path d="M17310 4736 c-13 -17 -10 -58 5 -63 23 -7 48 23 41 50 -7 30 -27 35
-46 13z"/>
<path d="M17510 4485 c-19 -23 -8 -50 20 -50 16 0 26 6 28 18 4 18 -14 47 -28
47 -4 0 -13 -7 -20 -15z"/>
<path d="M18031 4078 c-6 -18 -21 -42 -33 -55 -19 -20 -19 -23 -4 -29 27 -11
76 43 76 83 0 43 -24 44 -39 1z"/>
<path d="M6947 2102 c-85 -4 -93 -21 -77 -154 15 -122 20 -862 6 -981 -12
-105 7 -129 99 -125 33 1 218 -1 411 -6 401 -10 394 -11 394 73 0 97 -40 114
-227 101 -249 -17 -450 -12 -467 12 -17 24 -13 775 4 937 8 72 8 97 -2 110 -7
9 -13 18 -14 19 -6 9 -75 17 -127 14z"/>
<path d="M8630 2099 c-63 -5 -233 -7 -377 -4 l-263 6 -20 -33 c-14 -23 -19
-42 -15 -63 3 -16 8 -140 11 -275 2 -135 7 -251 9 -257 2 -7 0 -142 -6 -300
-12 -315 -10 -324 44 -343 53 -18 86 -12 119 20 30 30 30 32 24 103 -4 40 -11
130 -15 202 -13 197 -24 190 273 184 371 -7 355 -7 377 20 37 45 14 132 -38
146 -15 3 -151 3 -303 -1 -290 -7 -310 -5 -310 39 0 7 -2 85 -3 174 -5 212
-18 198 197 198 88 0 231 -2 318 -5 190 -6 208 2 208 95 0 93 -38 109 -230 94z"/>
<path d="M13812 2103 c-41 -8 -64 -59 -56 -123 15 -113 17 -630 5 -889 -12
-241 -1 -268 107 -264 95 3 103 20 92 173 -15 207 -13 355 6 371 25 21 584 25
623 4 39 -20 40 -30 33 -263 -8 -234 -5 -256 42 -279 40 -19 114 -11 147 16
l21 17 -11 315 c-8 228 -7 381 1 559 15 342 16 320 -11 341 -31 25 -151 27
-175 3 -19 -18 -18 3 -16 -264 1 -163 -2 -219 -12 -232 -19 -24 -615 -32 -643
-8 -17 15 -17 280 1 421 10 78 -57 123 -154 102z"/>
<path d="M19505 2105 c-5 -2 -22 -6 -36 -9 -43 -9 -45 -31 -36 -371 5 -176 9
-363 10 -415 l2 -95 -27 -3 c-22 -3 -34 7 -82 70 -31 40 -85 111 -121 158 -35
47 -65 89 -65 93 0 8 -62 80 -176 206 -78 87 -119 142 -145 195 -67 138 -206
210 -261 135 -18 -24 -19 -37 -8 -310 14 -405 13 -631 -5 -726 -18 -91 -19
-147 -5 -174 37 -68 193 -61 218 10 9 27 1 532 -12 715 -10 132 36 144 114 30
8 -12 49 -65 90 -118 41 -53 91 -119 111 -147 19 -27 52 -68 72 -92 72 -84
171 -213 191 -247 83 -146 226 -231 281 -170 18 20 18 24 0 151 -20 141 -17
507 5 563 5 15 10 87 10 159 1 73 5 177 9 232 5 58 5 107 -1 117 -17 34 -90
57 -133 43z"/>
<path d="M21497 2103 c-35 -9 -46 -52 -36 -143 6 -51 8 -273 4 -555 -7 -569
-8 -525 11 -552 22 -35 111 -33 153 3 l31 26 0 587 c-1 323 -4 592 -8 597 -17
26 -112 49 -155 37z"/>
<path d="M22080 2103 c-14 -2 -30 -11 -36 -18 -19 -25 -8 -1215 11 -1234 13
-13 71 -15 418 -13 396 2 402 2 420 23 27 33 23 104 -8 135 l-26 26 -177 -7
c-97 -3 -213 -11 -257 -16 -228 -26 -208 -80 -205 550 2 284 2 521 1 527 -3
26 -70 39 -141 27z"/>
<path d="M1940 2093 c-52 -7 -77 -37 -105 -125 -14 -44 -41 -109 -60 -147 -19
-37 -35 -71 -35 -76 0 -5 -18 -45 -39 -89 -42 -85 -121 -265 -177 -401 -18
-44 -58 -125 -88 -180 -31 -55 -56 -105 -56 -112 0 -7 -7 -28 -16 -47 -35 -73
3 -111 97 -95 75 13 105 49 148 177 52 155 25 144 374 145 349 1 331 7 374
-110 65 -179 84 -199 196 -210 59 -5 65 -4 81 18 25 37 20 62 -30 130 -26 34
-62 92 -80 127 -19 36 -38 70 -42 76 -5 6 -17 34 -26 61 -10 28 -36 80 -57
117 -22 36 -39 72 -39 80 0 17 -87 216 -145 333 -25 50 -60 135 -78 189 -42
129 -78 155 -197 139z m101 -343 c16 -41 35 -88 43 -105 8 -16 24 -52 34 -80
11 -27 34 -86 52 -130 60 -150 71 -142 -200 -135 -239 6 -231 1 -180 114 16
37 30 73 30 79 0 7 20 57 45 112 25 55 50 118 56 140 30 114 76 116 120 5z"/>
<path d="M6379 2096 c-2 -2 -154 -7 -338 -10 -267 -4 -338 -8 -349 -19 -11
-12 -14 -114 -15 -601 -1 -696 -14 -631 133 -622 52 3 235 2 405 -2 341 -9
359 -7 379 50 15 42 -8 104 -42 115 -15 5 -162 6 -347 2 -393 -10 -356 -29
-354 185 1 111 5 157 16 174 l14 23 264 -7 263 -7 32 32 c27 27 31 37 26 63
-16 82 -57 92 -352 84 -204 -6 -232 -5 -244 9 -19 23 -19 317 0 340 13 15 44
16 325 13 363 -4 358 -5 369 83 10 78 -13 99 -109 99 -39 0 -74 -2 -76 -4z"/>
<path d="M9473 2093 c-33 -6 -79 -68 -93 -122 -6 -25 -26 -77 -44 -116 -18
-38 -43 -95 -55 -125 -13 -30 -31 -71 -41 -91 -10 -19 -35 -78 -56 -130 -20
-52 -61 -146 -92 -209 -30 -63 -61 -133 -68 -154 -8 -22 -20 -46 -26 -54 -7
-8 -29 -48 -50 -90 -64 -128 -47 -172 65 -172 78 0 94 18 135 150 18 58 38
116 45 130 l13 25 308 3 308 2 32 -33 c17 -19 44 -65 59 -103 72 -175 83 -186
183 -182 110 5 112 21 28 184 -37 71 -80 147 -95 170 -15 22 -31 54 -35 69 -4
16 -27 68 -51 116 -23 48 -43 94 -43 101 0 7 -6 23 -14 34 -8 11 -24 47 -35
80 -11 32 -40 102 -65 155 -25 53 -46 101 -46 108 0 6 -14 35 -30 65 -17 29
-37 76 -45 104 -25 83 -79 107 -192 85z m78 -263 c19 -11 37 -45 69 -135 9
-27 43 -113 74 -190 36 -89 56 -150 54 -170 l-3 -30 -191 -1 c-105 -1 -196 -4
-202 -8 -19 -11 -62 12 -62 34 0 11 17 55 38 98 56 112 139 302 147 336 13 62
40 85 76 66z"/>
<path d="M10187 2079 c-25 -39 -30 -74 -14 -112 24 -56 41 -61 213 -53 149 7
152 7 177 -16 l25 -23 -9 -390 c-5 -214 -12 -434 -15 -487 -6 -88 -4 -100 15
-131 37 -60 153 -65 187 -9 7 11 8 189 3 522 l-7 505 21 19 c20 17 35 18 203
11 158 -6 182 -5 193 9 16 19 54 21 84 4 15 -8 82 -12 203 -13 242 0 229 11
220 -190 -4 -82 -9 -305 -12 -495 l-5 -346 27 -27 c22 -22 36 -27 78 -27 99 0
91 -44 88 542 -4 562 -5 550 54 551 16 0 102 -3 190 -8 l162 -8 27 27 c24 25
26 31 20 79 -11 87 -21 91 -200 81 -82 -4 -301 -8 -485 -9 -262 0 -343 -4
-372 -15 -33 -12 -41 -12 -77 4 -36 17 -67 18 -328 15 -158 -2 -370 0 -469 5
l-182 8 -15 -23z"/>
<path d="M12815 2078 c-18 -16 -28 -38 -33 -73 -5 -30 -39 -110 -85 -203 -42
-84 -83 -172 -91 -195 -22 -65 -117 -301 -126 -312 -4 -5 -11 -21 -15 -33 -4
-13 -19 -43 -35 -65 -15 -23 -49 -82 -75 -132 -26 -49 -56 -106 -66 -125 -24
-44 -24 -65 3 -102 21 -30 23 -30 81 -24 34 3 70 12 82 20 21 14 72 128 93
208 6 21 19 50 31 66 l20 29 269 5 c390 7 372 13 426 -156 41 -128 82 -166
178 -166 65 0 106 44 74 79 -8 9 -29 50 -46 91 -17 41 -36 81 -44 89 -20 25
-106 179 -106 191 0 6 -15 44 -34 83 -41 88 -71 159 -90 212 -55 152 -79 210
-107 260 -18 31 -45 94 -60 138 -39 112 -67 137 -154 137 -52 0 -69 -4 -90
-22z m143 -275 c11 -27 24 -59 28 -73 3 -14 16 -47 29 -75 12 -27 30 -74 40
-104 9 -29 36 -85 58 -123 33 -59 39 -75 31 -97 l-9 -26 -210 -2 c-135 -1
-214 2 -222 9 -25 21 -14 63 57 213 37 79 62 141 86 209 42 120 79 143 112 69z"/>
<path d="M16090 2072 c-135 -44 -179 -71 -276 -176 -270 -291 -238 -699 76
-963 36 -31 277 -143 306 -143 21 0 76 -33 134 -80 99 -81 217 -130 350 -146
47 -6 189 24 239 51 85 44 109 129 52 186 -39 38 -69 37 -127 -7 -58 -45 -90
-54 -179 -54 -159 1 -230 98 -95 130 27 6 54 18 61 26 6 8 17 14 23 14 39 0
150 108 205 199 69 114 74 137 75 346 l0 190 -43 80 c-112 205 -194 280 -390
354 -86 33 -296 29 -411 -7z m425 -194 c61 -32 138 -111 164 -170 69 -156 66
-144 64 -269 -2 -108 -4 -122 -30 -169 -15 -29 -36 -67 -45 -85 -22 -42 -97
-104 -180 -148 -236 -125 -595 35 -633 282 -3 20 -11 59 -17 87 -9 43 -8 60 7
103 9 29 15 65 11 81 -3 19 1 36 13 52 10 13 26 38 35 56 41 79 163 178 251
203 73 20 307 5 360 -23z"/>
<path d="M17698 2091 c-56 -6 -108 -38 -108 -66 0 -6 -18 -46 -41 -90 -22 -44
-60 -127 -84 -185 -24 -58 -56 -132 -73 -165 -16 -33 -41 -91 -56 -130 -37
-95 -67 -158 -212 -447 -79 -156 -81 -175 -19 -198 103 -39 184 34 244 221 37
113 4 104 360 107 l311 3 23 -25 c31 -33 51 -76 78 -163 31 -99 57 -124 143
-130 97 -8 132 30 87 95 -47 69 -155 274 -191 364 -22 55 -51 113 -65 130 -14
16 -25 37 -25 47 0 9 -6 25 -13 36 -7 11 -19 40 -26 65 -7 25 -21 59 -31 75
-10 17 -25 55 -35 85 -9 30 -34 91 -55 135 -21 44 -43 98 -50 120 -11 35 -85
127 -100 124 -3 -1 -31 -5 -62 -8z m55 -293 c29 -63 49 -113 64 -163 8 -27 39
-100 69 -162 83 -171 80 -178 -72 -168 -70 5 -143 3 -202 -5 -145 -19 -153 4
-66 187 31 65 73 160 95 212 56 136 83 160 112 99z"/>
<path d="M20014 2075 c-12 -16 -14 -116 -14 -573 1 -304 -2 -556 -4 -561 -10
-15 5 -69 24 -89 17 -17 34 -18 291 -16 303 3 416 13 483 43 25 12 47 21 50
21 15 0 116 73 147 107 130 140 178 252 186 436 3 63 0 103 -7 112 -6 7 -15
41 -21 75 -6 41 -20 78 -39 106 -17 23 -30 45 -30 49 0 8 -43 67 -98 132 -62
74 -182 134 -312 157 -156 27 -637 28 -656 1z m627 -170 c289 -36 431 -452
245 -717 -105 -149 -237 -190 -623 -192 -85 -1 -82 -20 -84 463 l-2 424 23 19
c23 18 303 20 441 3z"/>
<path d="M2859 2069 c-22 -22 -22 -23 -13 -333 10 -355 8 -654 -6 -741 -10
-62 0 -128 22 -141 24 -15 640 -15 725 0 235 41 308 112 307 296 -1 156 -4
167 -79 241 -89 88 -91 102 -24 174 18 18 39 62 55 112 l26 82 -27 80 c-66
200 -209 251 -695 251 -263 0 -271 -1 -291 -21z m616 -150 c207 -38 255 -260
74 -339 -77 -34 -481 -45 -497 -14 -5 11 -9 87 -9 171 0 184 3 189 107 196 92
6 254 -1 325 -14z m156 -557 c75 -39 112 -133 85 -218 -20 -62 -32 -74 -121
-110 -67 -27 -78 -29 -290 -34 -289 -8 -263 -27 -263 195 0 152 2 176 17 185
9 5 125 10 267 10 l252 0 53 -28z"/>
<path d="M4245 2080 c-44 -16 -44 -21 -35 -325 5 -160 7 -407 3 -550 -8 -324
-8 -323 14 -347 17 -19 28 -20 328 -15 464 7 533 30 707 245 87 108 91 121 96
359 l4 202 -38 78 c-69 137 -218 275 -346 320 -66 23 -91 26 -268 29 -107 2
-251 6 -320 8 -69 2 -134 0 -145 -4z m590 -171 c294 -54 433 -392 285 -694
-67 -136 -224 -201 -515 -212 -234 -8 -209 -62 -213 462 l-3 423 23 16 c27 19
326 23 423 5z"/>
</g>
</svg>
