<?xml version="1.0" standalone="no"?>
<!DOCTYPE svg PUBLIC "-//W3C//DTD SVG 20010904//EN"
 "http://www.w3.org/TR/2001/REC-SVG-20010904/DTD/svg10.dtd">
<svg version="1.0" xmlns="http://www.w3.org/2000/svg"
 width="1800.000000pt" height="909.000000pt" viewBox="0 0 1800.000000 909.000000"
 preserveAspectRatio="xMidYMid meet">
<g transform="translate(0.000000,909.000000) scale(0.100000,-0.100000)"
fill="#000000" stroke="none">
<path d="M6725 8729 c-16 -4 -61 -15 -100 -25 -339 -84 -675 -370 -889 -757
-15 -29 -34 -59 -41 -67 -6 -8 -24 -40 -39 -70 -42 -83 -63 -125 -122 -240
-59 -115 -126 -260 -194 -415 -54 -126 -91 -206 -146 -320 -54 -112 -119 -262
-146 -334 -12 -31 -27 -65 -34 -76 -12 -18 -51 -110 -104 -245 -39 -97 -66
-157 -91 -200 -15 -25 -30 -56 -34 -70 -8 -28 -67 -166 -95 -221 -10 -20 -33
-72 -50 -115 -41 -100 -55 -132 -96 -221 -19 -40 -34 -77 -34 -83 0 -6 -4 -18
-9 -28 -12 -21 -94 -195 -153 -322 -25 -52 -56 -113 -70 -135 -14 -22 -31 -64
-38 -93 l-14 -52 16 -16 16 -16 19 10 c10 6 39 34 63 63 25 28 72 74 105 101
33 27 78 64 100 83 98 84 124 104 180 139 33 20 76 48 95 61 19 14 51 35 70
49 55 37 208 116 278 142 35 14 89 37 120 53 31 15 73 31 93 35 21 4 48 15 62
26 14 11 30 20 36 20 15 0 61 52 61 70 0 8 9 21 20 28 11 7 20 21 20 33 0 11
13 37 29 57 16 20 43 71 62 112 18 41 38 82 45 90 15 19 38 126 29 140 -18 29
-75 -4 -75 -44 0 -12 -11 -37 -25 -56 -14 -19 -25 -46 -25 -61 l0 -27 -25 -6
-25 -6 0 -16 c0 -16 -28 -65 -44 -76 l-10 -6 13 -16 c7 -8 11 -27 9 -43 l-3
-28 -60 0 c-65 -1 -85 -8 -85 -30 0 -20 -35 -37 -64 -29 l-24 6 -6 -10 c-4 -6
-2 -13 4 -17 15 -9 12 -35 -4 -35 -7 0 -19 7 -26 15 l-12 15 -37 -29 -36 -28
-53 -5 -52 -5 -20 -18 -20 -18 -6 18 -7 17 14 8 c7 5 10 12 7 16 -4 4 -19 -1
-33 -10 l-25 -16 0 -29 0 -28 -18 -16 c-31 -29 -71 -10 -72 34 0 20 -18 35
-50 44 l-25 6 -1 -62 -1 -62 -18 -13 c-11 -8 -22 -14 -27 -14 -14 0 -8 38 7
44 l15 5 0 33 0 33 -20 13 c-11 7 -20 18 -20 25 0 7 -6 19 -12 25 l-13 13 -1
82 -2 81 19 49 c10 26 19 55 19 64 0 9 7 24 15 33 8 9 23 41 33 70 10 30 24
56 30 58 l11 3 -2 -42 -2 -42 13 -4 12 -5 0 26 c0 13 -4 36 -10 50 l-9 25 15
16 c9 8 21 15 29 15 17 0 25 22 25 67 l0 35 16 -6 c9 -3 18 -6 20 -6 2 0 4 -9
4 -19 0 -11 4 -22 9 -26 12 -7 34 31 27 44 -3 5 3 19 14 31 l20 23 -5 19 c-4
10 -3 39 1 64 l7 47 18 -24 17 -24 8 30 7 29 -11 4 c-7 2 -12 10 -12 19 l0 14
19 -6 19 -6 6 23 c3 13 6 42 6 65 l0 43 20 32 c11 18 20 44 20 58 0 14 5 42
10 62 l11 37 19 6 19 6 -5 28 -6 29 12 7 11 7 6 -21 c7 -29 20 -26 38 8 l15
29 18 -5 19 -4 26 35 c33 42 33 44 5 48 l-23 3 0 15 0 15 18 -1 18 -2 15 24
c9 12 22 48 30 79 l15 55 -10 19 -10 19 24 26 c14 15 25 33 25 40 0 8 7 19 15
26 8 7 15 25 15 41 0 30 9 36 26 19 l10 -10 29 30 28 29 -12 15 -13 15 7 20 6
20 33 11 34 11 6 42 c4 23 11 56 16 72 5 17 12 42 15 58 l5 27 16 0 15 0 10
29 c6 16 17 32 25 35 8 3 14 12 14 19 0 17 32 47 50 47 8 0 26 12 41 26 l27
26 11 -6 c6 -4 11 -16 11 -27 l0 -21 13 4 c6 3 16 17 22 32 l9 27 -14 9 c-8 5
-25 7 -36 4 l-22 -6 -7 11 -6 11 35 34 36 33 0 33 0 32 30 11 30 11 15 45 c8
24 15 51 15 59 0 7 16 33 35 57 l36 43 38 -5 39 -5 12 22 c16 30 43 55 75 71
32 16 62 68 70 120 l5 35 30 15 c31 15 140 115 140 129 0 4 20 13 45 20 25 7
57 22 71 33 33 25 43 14 21 -24 -9 -17 -17 -37 -17 -45 0 -18 29 -18 36 0 3 7
34 36 69 64 l63 51 6 -14 5 -15 35 0 c33 0 59 8 114 33 l23 11 27 -16 27 -15
32 7 c17 4 37 3 45 -1 7 -5 21 -6 30 -3 l17 5 22 -25 23 -26 33 0 c19 0 47 -7
63 -15 16 -9 50 -18 75 -22 53 -7 65 -19 39 -38 l-19 -14 18 -6 c9 -4 23 -5
31 -2 l14 5 26 -27 c14 -15 26 -34 26 -42 0 -7 14 -22 30 -31 l30 -17 0 -37 0
-36 14 5 c8 3 28 1 45 -6 l31 -11 0 -18 0 -18 18 0 c21 0 52 -29 52 -48 0 -7
4 -12 10 -12 16 0 80 -61 80 -76 0 -8 -9 -23 -21 -35 -11 -11 -18 -26 -16 -32
l4 -12 59 -5 59 -5 7 -40 c4 -22 10 -62 13 -88 l6 -48 18 6 18 6 15 -23 c8
-13 18 -35 22 -50 l6 -28 24 0 24 0 6 -16 c3 -9 6 -24 6 -34 l0 -18 -20 -5
c-11 -3 -20 -12 -20 -21 0 -23 28 -20 35 5 l7 20 15 -3 c9 -2 21 -11 27 -20
l10 -17 -17 -19 c-32 -35 -2 -63 32 -29 l13 12 -8 -39 -7 -38 21 6 21 7 6 -28
c4 -15 10 -35 15 -44 5 -9 12 -33 15 -52 l7 -36 -11 -34 -12 -35 35 -38 35
-38 6 -47 7 -47 -17 -26 c-9 -14 -26 -28 -38 -32 l-21 -7 -17 22 -18 21 -5
-17 c-3 -10 -8 -39 -12 -66 -3 -26 -10 -49 -14 -52 -12 -7 -91 66 -101 94
l-10 24 11 11 10 10 12 -12 c19 -19 35 -14 42 13 3 13 17 36 31 51 25 27 34
64 15 64 -6 0 -13 -13 -16 -30 -7 -34 -7 -34 -35 -17 l-20 12 -19 -22 -18 -23
-24 0 c-12 0 -30 -4 -38 -10 l-14 -9 -8 12 c-4 7 -8 24 -8 39 0 32 -15 44 -35
28 -19 -15 -35 -4 -35 24 0 12 -5 27 -12 34 l-12 12 11 0 c6 0 13 7 17 15 l5
15 -29 15 -30 16 0 33 0 34 15 12 c19 16 20 40 1 40 -7 0 -19 -7 -26 -15 -7
-8 -21 -15 -31 -15 l-19 0 0 26 c0 15 7 32 17 39 l16 12 -7 11 -7 11 -27 -5
-28 -6 -2 33 c-3 36 -17 59 -37 59 -14 0 -75 65 -75 79 0 4 -9 18 -20 31 l-20
23 15 23 15 23 -43 23 -42 23 -3 28 -3 27 -25 17 c-14 9 -37 16 -52 17 l-27 1
-3 28 -3 27 -29 0 c-16 0 -30 -6 -33 -12 l-5 -13 -18 18 -19 17 14 22 13 21
-14 8 c-7 5 -23 9 -34 9 -24 0 -40 16 -46 45 l-4 20 -29 -2 -28 -2 -12 16 -12
16 -61 -7 -61 -7 -10 19 c-6 11 -18 23 -27 26 l-17 6 -18 -16 -17 -16 -36 17
-36 17 -32 -15 c-18 -8 -50 -20 -72 -27 l-38 -12 -5 -19 c-6 -23 -26 -24 -58
-3 l-25 16 -23 -16 c-12 -9 -39 -28 -60 -42 l-39 -25 5 -20 5 -19 -20 0 -19 0
6 -21 7 -20 -29 3 -28 3 -15 -33 -15 -32 -22 5 -21 5 -27 -32 -27 -32 21 -17
c12 -10 21 -22 21 -28 0 -16 -20 -24 -34 -12 l-12 10 -62 -50 c-65 -52 -69
-58 -51 -76 l10 -10 -7 -27 -6 -26 -26 -12 -26 -13 -7 -33 c-4 -19 -15 -49
-25 -67 l-18 -34 15 -18 c9 -10 16 -29 17 -43 l1 -25 -30 -27 -30 -28 6 -21 7
-21 -13 -9 c-7 -4 -26 -5 -41 -2 l-28 6 0 -21 c0 -27 17 -37 36 -21 l15 12 10
-10 c14 -14 2 -39 -27 -52 l-25 -11 17 -25 16 -25 -6 -16 -6 -16 -29 5 -29 6
-18 -13 -18 -13 24 -13 24 -13 -18 -13 -18 -13 12 -33 12 -33 -16 -48 c-20
-59 -20 -76 -1 -83 20 -8 19 -23 -2 -31 -10 -3 -27 -14 -38 -23 -11 -10 -29
-20 -40 -22 l-20 -4 3 -14 c2 -8 6 -27 9 -43 l6 -29 -21 6 -20 7 -30 -37 -30
-36 -7 -70 -7 -70 10 -10 10 -10 6 10 c3 6 8 36 10 67 2 31 7 59 10 62 10 11
26 -48 26 -96 l0 -49 -19 -13 c-10 -8 -21 -28 -24 -46 l-6 -32 19 -6 19 -6 -6
-37 c-3 -20 -16 -51 -29 -69 -13 -17 -24 -43 -24 -57 l0 -25 -17 -10 -18 -10
20 -15 c24 -17 35 -12 35 18 0 13 8 30 19 40 21 19 133 243 177 356 10 25 24
52 31 61 7 8 13 24 13 35 1 26 30 109 62 175 46 94 144 311 184 404 45 108
180 374 200 396 8 8 14 19 14 23 0 10 52 84 117 167 96 122 179 173 315 188
l61 8 51 -12 c154 -37 255 -138 414 -410 36 -61 182 -352 182 -362 0 -3 30
-66 66 -142 64 -132 79 -168 128 -316 13 -38 35 -95 49 -125 14 -30 38 -95 53
-144 31 -97 55 -136 84 -136 l18 0 47 53 c26 28 58 68 71 87 13 19 45 63 72
96 97 126 129 171 186 264 33 52 71 112 85 133 43 62 70 120 70 152 1 40 -39
167 -57 182 -8 7 -23 42 -33 79 -10 37 -27 77 -38 88 -10 12 -26 45 -36 73 -9
29 -20 55 -25 58 -5 3 -14 22 -21 43 -6 20 -21 51 -34 67 -12 17 -25 41 -28
56 -4 14 -20 45 -37 70 -16 24 -30 49 -30 55 0 7 -16 35 -35 63 -19 28 -35 59
-35 70 0 10 -7 24 -16 32 -8 7 -24 29 -35 48 -11 20 -38 61 -60 91 -22 30 -50
71 -63 90 -37 56 -235 268 -257 275 -10 4 -19 10 -19 15 0 55 -307 228 -490
276 l-105 28 -165 1 c-91 1 -178 -1 -195 -6z"/>
<path d="M11330 8729 c-25 -4 -74 -8 -110 -8 -296 -5 -938 -219 -1224 -410
-22 -14 -66 -43 -99 -64 -311 -196 -703 -599 -872 -895 -5 -10 -20 -31 -31
-47 -12 -17 -33 -52 -48 -80 -14 -27 -30 -57 -36 -65 -5 -8 -26 -51 -47 -95
-20 -44 -55 -109 -77 -145 -22 -36 -73 -126 -114 -200 -40 -74 -87 -153 -103
-175 -16 -22 -55 -76 -86 -120 -76 -108 -211 -257 -297 -329 -39 -33 -95 -81
-123 -107 -29 -26 -68 -55 -87 -66 -19 -10 -73 -44 -122 -76 -48 -33 -97 -62
-108 -67 -12 -4 -38 -20 -59 -34 -21 -14 -42 -26 -47 -26 -5 0 -35 -15 -67
-34 -32 -18 -74 -37 -93 -41 -19 -4 -56 -17 -81 -30 -25 -12 -92 -37 -150 -55
-57 -17 -108 -36 -114 -41 -5 -5 -23 -9 -40 -9 -16 -1 -41 -7 -55 -15 -14 -8
-36 -15 -50 -15 -14 0 -31 -4 -38 -9 l-14 -8 13 -21 13 -21 54 -7 53 -6 76 13
75 13 5 13 c3 7 16 13 29 13 l24 0 9 23 c13 32 29 44 97 66 123 41 159 55 172
68 7 7 23 13 35 13 12 1 40 9 62 20 22 11 45 19 51 20 7 0 25 7 40 15 16 8 37
15 48 15 l18 0 -11 13 c-15 19 -4 27 35 27 l33 0 5 18 c6 17 107 102 123 102
5 0 31 20 60 45 55 49 69 53 99 30 39 -30 101 -12 73 21 l-13 16 15 9 c8 5 24
7 36 4 l22 -5 11 20 11 20 20 0 21 0 5 -20 c8 -30 22 -24 38 14 l15 34 54 27
c29 14 64 37 77 51 12 13 30 24 38 24 9 0 34 12 56 25 l40 25 31 0 32 0 12
-31 13 -30 -13 -25 -14 -24 12 -12 c7 -7 12 -27 12 -45 l0 -32 30 -16 c39 -20
37 -21 45 25 4 22 11 42 16 46 l9 5 0 -49 0 -50 23 -15 22 -14 -3 -67 -2 -67
29 -30 30 -30 38 41 c21 23 55 60 76 83 20 23 37 45 37 49 0 5 17 27 38 51 38
42 83 104 113 155 22 37 89 164 89 169 0 9 -36 1 -50 -12 -10 -9 -30 -17 -46
-18 l-28 -2 -14 28 c-7 15 -24 32 -37 37 -13 5 -29 18 -35 30 -6 11 -19 20
-30 20 -10 0 -31 5 -45 12 l-26 11 3 39 2 39 -15 10 c-7 5 -23 9 -35 9 -11 0
-35 16 -54 35 -36 38 -57 44 -66 20 -4 -8 -10 -15 -15 -15 -18 0 -8 29 32 96
l40 69 -6 60 -6 60 20 60 c11 33 21 70 21 82 0 12 8 38 17 58 l17 36 -11 19
-12 18 10 35 9 35 25 6 25 6 0 16 c0 9 10 24 23 34 l22 19 -12 12 c-15 15 -17
49 -4 49 5 0 11 -9 14 -21 l6 -21 10 7 c14 8 14 45 0 45 -6 0 -9 6 -6 13 2 6
10 12 18 12 8 0 28 11 44 23 l30 24 -3 28 c-4 37 12 46 38 20 21 -21 40 -26
40 -10 0 5 -14 17 -31 25 l-30 16 7 22 c10 33 15 34 31 10 9 -13 24 -23 34
-23 l19 0 0 23 c0 13 9 32 20 42 11 10 20 24 20 32 0 7 5 13 12 13 6 0 20 8
30 17 l19 17 15 -22 c20 -29 39 -28 76 3 16 14 39 25 51 25 12 0 29 5 37 10
l15 9 -12 21 c-20 30 -16 46 21 86 l34 37 15 -6 c8 -3 34 1 57 9 83 29 312 48
380 32 23 -5 21 20 -2 26 -13 3 -33 15 -46 26 l-24 19 7 11 7 11 19 -6 19 -6
0 31 0 31 38 -3 37 -3 0 15 0 15 -32 3 c-69 7 -48 41 37 61 30 8 62 17 70 22
l15 8 -17 5 c-10 3 -26 9 -35 13 l-18 7 45 4 c25 2 52 9 60 17 8 7 24 15 35
17 l20 4 -1 24 c-2 30 11 40 51 40 17 0 65 9 108 19 l78 19 19 24 c11 13 19
26 20 30 0 8 81 34 133 43 l37 6 22 -16 c13 -8 28 -15 35 -15 21 0 15 28 -7
35 -25 8 -26 24 -2 31 9 3 25 10 34 15 10 5 28 9 40 9 13 0 56 16 97 36 l74
37 65 -12 c35 -7 82 -22 103 -34 l38 -22 12 12 13 13 -14 24 c-7 14 -10 32 -6
42 l6 16 58 -5 c31 -4 80 -9 108 -13 l51 -6 22 12 22 11 25 -16 25 -16 42 3
42 3 13 28 13 27 20 0 c11 0 22 -6 25 -14 l5 -14 57 -6 c76 -9 116 -23 137
-46 10 -11 27 -20 37 -20 l19 0 6 30 6 30 12 -10 13 -11 25 6 24 6 38 -15 c21
-9 46 -16 56 -16 10 0 38 -11 63 -25 25 -14 55 -25 68 -25 13 0 30 -5 38 -10
l15 -10 -15 -10 -15 -10 15 -9 c8 -6 49 -9 92 -9 l77 1 15 -12 c8 -7 12 -19 9
-27 l-5 -14 31 -6 32 -7 48 -43 c27 -24 57 -44 68 -44 19 0 35 -15 66 -64 l19
-28 26 6 c15 3 41 8 59 12 l32 6 19 -38 c25 -48 72 -84 137 -105 l50 -16 9
-30 8 -30 58 -28 58 -28 6 -28 5 -28 23 -12 c13 -6 47 -34 76 -62 l53 -50 12
12 c15 15 27 14 27 -1 0 -7 8 -26 17 -43 9 -16 21 -55 28 -85 l12 -55 14 0
c19 0 57 -39 69 -71 l10 -24 27 -10 c16 -6 35 -15 43 -20 8 -6 26 -15 40 -21
50 -21 100 -96 100 -150 0 -24 40 -85 69 -105 12 -9 21 -21 21 -29 0 -21 19
-28 36 -14 l16 13 9 -15 10 -14 -6 -47 -5 -46 26 -21 c15 -12 32 -21 39 -21 7
0 16 -12 20 -27 3 -16 12 -35 19 -43 7 -8 28 -48 47 -87 37 -80 42 -83 70 -50
l20 22 15 -22 c17 -23 44 -31 44 -13 0 15 -62 130 -70 130 -4 0 -11 -10 -16
-22 l-8 -23 -3 68 -4 68 -14 6 -15 5 0 35 0 34 -40 48 c-22 26 -40 57 -40 69
0 11 -5 24 -11 27 -6 4 -24 25 -40 47 l-29 41 0 28 c0 26 -5 34 -45 67 -8 7
-15 22 -15 34 0 20 -50 96 -97 148 -13 14 -23 29 -23 33 0 5 -26 39 -58 75
-32 37 -79 94 -104 127 -56 74 -268 285 -323 322 -22 14 -59 42 -81 62 -23 20
-56 45 -73 56 -85 55 -188 126 -204 140 -10 9 -34 23 -55 32 -20 8 -86 40
-147 69 -60 30 -114 54 -118 54 -4 0 -34 13 -65 28 -31 16 -79 34 -107 41 -27
7 -64 21 -81 31 -30 19 -107 43 -191 61 -23 4 -70 15 -104 24 -87 23 -199 37
-304 39 -49 1 -123 9 -163 19 l-73 17 -82 -1 c-45 -1 -102 -5 -127 -10z
m-2542 -2444 l3 -21 -25 -23 -25 -24 -16 13 c-21 17 -19 36 7 60 27 25 52 22
56 -5z"/>
<path d="M11403 7993 c-7 -2 -13 -13 -13 -22 0 -29 -12 -32 -34 -8 l-21 22
-131 -1 -131 -1 -29 -20 c-16 -11 -43 -23 -60 -26 l-31 -6 -43 15 -43 15 -26
-10 c-14 -5 -44 -12 -66 -16 -22 -4 -48 -11 -57 -16 l-18 -10 0 -24 c0 -31
-11 -37 -63 -36 -23 1 -51 1 -62 1 -11 0 -44 0 -74 0 -30 0 -61 -6 -68 -12
l-13 -11 -71 5 -71 5 7 -33 6 -33 -63 6 -63 5 -14 -15 c-19 -24 -7 -34 48 -42
l50 -7 5 -15 c10 -24 -4 -34 -43 -33 -20 1 -53 2 -75 1 l-38 -1 6 -25 6 -25
-16 -7 c-9 -3 -30 1 -48 10 l-32 15 -17 -10 -17 -9 0 -34 c0 -47 -9 -65 -33
-65 -11 0 -40 -10 -64 -21 l-44 -21 -13 17 c-16 22 -36 12 -29 -15 l5 -20 -16
-24 c-8 -13 -34 -35 -56 -47 -47 -26 -50 -36 -14 -49 32 -12 29 -22 -16 -52
l-35 -24 -19 -56 c-11 -32 -23 -55 -28 -52 -4 3 -14 -7 -20 -22 l-13 -27 13
-5 c28 -9 -14 -72 -49 -72 -8 0 -25 -7 -38 -16 l-23 -16 11 -11 c18 -18 13
-51 -14 -98 -50 -89 -85 -190 -94 -274 -4 -33 -13 -71 -20 -84 l-13 -24 11
-39 12 -39 -9 -12 c-6 -7 -12 -36 -13 -65 l-4 -52 13 5 c8 3 15 5 17 5 1 0 24
29 50 65 27 36 51 65 54 65 3 0 20 23 36 51 429 717 754 1032 1270 1229 11 4
34 13 50 20 61 25 151 50 180 50 17 0 55 7 85 15 30 8 120 20 200 27 l145 11
180 -12 c361 -26 639 -119 933 -314 35 -23 73 -47 84 -53 10 -6 31 -23 46 -36
15 -14 47 -39 72 -55 54 -37 219 -202 256 -257 14 -21 34 -46 44 -56 10 -10
31 -40 46 -66 15 -27 41 -69 58 -93 32 -48 56 -92 117 -211 39 -77 55 -116 90
-230 11 -36 26 -78 34 -95 7 -16 21 -64 30 -105 10 -41 23 -97 30 -125 7 -27
21 -84 30 -126 l17 -76 1 -274 0 -274 -27 -105 c-16 -58 -31 -121 -35 -140 -8
-37 -12 -48 -65 -205 -70 -203 -111 -289 -200 -424 l-47 -70 -2 -42 -1 -41 45
-41 c25 -23 69 -60 99 -82 87 -66 259 -214 351 -304 48 -46 99 -91 114 -99
l27 -14 24 6 24 6 36 57 c19 31 40 65 45 77 5 12 18 35 29 51 22 35 26 42 114
202 37 67 82 161 101 207 19 47 39 93 45 103 18 32 97 285 124 398 15 61 33
133 41 160 7 28 17 111 20 185 3 74 13 200 22 280 l16 145 -13 110 c-7 61 -15
162 -19 225 l-7 115 -12 22 -12 22 10 26 c5 14 10 41 10 60 l0 34 -27 -2 -27
-2 -9 30 c-5 17 -14 41 -19 54 l-9 24 -10 -10 c-6 -6 -12 -28 -14 -49 -1 -22
-8 -61 -14 -88 l-12 -49 10 -10 9 -9 7 21 c3 12 10 21 15 21 13 0 19 -26 9
-41 l-9 -14 6 -72 6 -73 -21 -45 c-11 -25 -21 -50 -21 -56 l0 -11 15 6 15 5 0
-105 0 -105 10 -19 11 -20 -9 -47 -8 -48 -16 3 -16 2 -7 -57 c-3 -32 -7 -124
-8 -206 0 -81 -4 -153 -8 -159 l-8 -12 -6 30 c-16 70 -23 71 -49 7 l-20 -47
12 -4 c7 -2 12 -13 12 -24 l0 -20 -15 12 c-21 17 -23 13 -34 -56 -6 -32 -15
-81 -20 -108 -6 -28 -9 -58 -5 -68 6 -20 -24 -126 -42 -148 -7 -8 -14 -42 -16
-74 l-3 -59 -12 -4 -13 -5 -12 26 c-15 35 -31 28 -42 -17 l-9 -37 -16 -5 -16
-5 -13 -56 c-8 -31 -23 -81 -35 -111 l-20 -55 -28 6 -28 5 -15 -14 c-8 -8 -18
-24 -21 -35 -3 -11 -13 -20 -21 -20 -8 0 -20 -11 -26 -25 -6 -14 -17 -25 -25
-25 l-13 0 0 25 c0 14 -4 25 -9 25 -5 0 -20 20 -32 45 -24 48 -33 54 -43 29
l-6 -15 -32 3 -33 3 -3 43 c-2 23 -7 42 -12 42 l-10 0 5 76 4 77 16 18 c9 9
20 41 25 71 5 29 16 85 25 123 9 39 23 111 31 160 14 85 20 125 29 220 6 65
21 123 36 141 l14 17 1 138 1 138 -12 5 -12 4 -8 84 c-10 102 -10 115 0 156
l8 33 -21 5 -20 6 -6 29 -5 29 -15 0 c-22 0 -29 35 -22 114 l7 71 -21 30 c-11
17 -20 40 -20 53 0 12 -9 39 -20 59 -11 21 -20 48 -20 60 0 12 -5 34 -12 48
l-12 26 11 18 11 18 -34 54 -34 54 5 21 5 22 -19 24 c-11 14 -23 36 -26 50 -4
14 -26 49 -51 79 -50 61 -52 69 -24 76 l20 5 0 18 0 19 -22 7 -22 7 -4 -12
c-2 -6 -8 -11 -14 -11 l-10 0 12 15 13 16 -13 24 -13 23 7 56 7 55 -11 21 -12
22 -19 -5 -20 -5 6 28 6 28 -11 7 -11 7 -6 -21 c-3 -12 -12 -21 -19 -21 l-14
0 0 20 0 20 15 0 c8 0 15 5 15 11 l0 11 -26 -6 -27 -7 7 16 c3 9 9 28 12 41
l6 24 -14 5 c-8 3 -26 1 -40 -4 l-26 -10 -6 15 c-3 8 -12 14 -20 14 l-14 0 -7
32 -7 32 -44 43 -43 44 6 14 c3 8 2 22 -1 31 l-7 17 -22 -22 c-26 -24 -57 -28
-57 -8 0 8 11 19 25 25 l25 12 0 25 0 25 -20 0 c-10 0 -31 -5 -45 -12 l-26
-12 -55 57 c-30 32 -54 64 -54 72 0 17 -69 55 -99 55 -10 0 -31 14 -46 31
l-26 32 -16 -22 -15 -23 -27 7 c-14 4 -32 12 -39 18 l-14 11 17 13 18 12 -36
-6 -37 -6 -9 25 c-11 29 -52 64 -98 83 l-32 13 6 21 5 21 -11 0 c-6 0 -14 -7
-16 -15 -3 -8 -8 -23 -11 -32 l-5 -18 -14 19 -14 19 -57 -6 -57 -6 -36 19
c-20 10 -66 30 -104 44 l-67 26 -44 0 -43 0 -26 -20 -25 -20 -44 0 c-24 0 -48
4 -53 9 l-10 10 -68 -9 c-62 -7 -87 -6 -127 7 l-15 4 19 11 18 10 -13 9 c-15
10 -18 10 -36 2z"/>
<path d="M10130 7900 c-36 -4 -54 -7 -40 -8 14 -1 38 -9 54 -17 31 -17 76 -20
76 -6 0 16 -12 41 -19 39 -3 -1 -35 -4 -71 -8z"/>
<path d="M14210 6394 l0 -46 13 4 12 5 3 41 3 42 -15 0 -16 0 0 -46z"/>
<path d="M13583 6049 c3 -23 11 -46 19 -50 l13 -8 8 8 8 8 -17 42 c-9 22 -21
41 -26 41 l-11 0 6 -41z"/>
<path d="M4766 5614 c-9 -30 -5 -154 6 -160 15 -10 19 0 23 73 l5 69 -14 19
-13 19 -7 -20z"/>
<path d="M8780 5585 c-7 -8 -17 -15 -22 -15 -6 0 -27 -14 -47 -30 -20 -17 -43
-36 -50 -43 -14 -11 -37 -14 -141 -21 -25 -1 -51 -3 -59 -4 l-13 -2 5 -14 c3
-8 -1 -20 -9 -26 l-14 -12 -13 11 -14 11 -33 -10 c-19 -5 -46 -23 -61 -39
l-27 -30 -39 -10 c-40 -11 -78 -40 -100 -77 l-11 -19 -15 20 -16 20 -36 -37
-37 -37 3 -23 c7 -46 -20 -35 -35 15 l-6 18 -27 -3 -28 -3 -3 -28 -3 -28 -22
-8 c-12 -5 -33 -21 -46 -35 -32 -34 -40 -33 -81 9 -44 46 -50 44 -50 -14 l0
-49 -20 -23 -19 -24 -52 28 -51 28 -19 -17 c-11 -10 -18 -23 -15 -30 3 -7 -4
-20 -15 -30 -11 -10 -17 -24 -15 -31 3 -7 -3 -17 -13 -23 l-18 -9 -18 19 c-22
24 -38 25 -55 5 l-12 -15 -34 0 -34 0 0 14 c0 7 -7 19 -15 26 l-16 13 -10 -10
-11 -11 14 -21 13 -22 -24 -20 c-31 -25 -53 -21 -61 11 l-6 25 -29 0 -29 0
-22 -55 c-26 -66 -36 -70 -65 -31 -13 17 -28 31 -35 31 -21 0 -74 51 -74 71
l0 19 -16 0 -16 0 8 -42 c8 -46 7 -87 -2 -130 l-6 -28 -16 0 c-8 0 -30 -5 -49
-12 l-33 -12 -31 23 -31 23 -28 -27 -29 -28 -58 6 c-32 3 -68 9 -80 13 l-22 6
6 -23 6 -22 -39 6 c-21 4 -51 9 -66 13 l-28 6 0 -15 c0 -8 6 -18 13 -20 l12
-5 -15 -11 c-30 -21 -110 -5 -110 23 0 8 -10 18 -21 21 l-21 7 -24 -13 -24
-13 -15 20 -15 19 -20 -24 c-11 -13 -20 -29 -20 -37 0 -18 -21 -18 -56 1 -45
23 -63 18 -109 -31 l-43 -46 -21 4 -20 3 -30 -29 -31 -30 -48 12 -47 12 -50
-9 -50 -9 -13 -21 -14 -20 -19 9 c-10 6 -28 15 -40 21 l-21 10 -31 -36 -32
-36 -60 -2 -60 -3 0 -26 c-1 -14 -7 -33 -14 -41 l-13 -16 -41 -3 -42 -3 2 -23
c2 -13 -2 -32 -7 -43 l-11 -19 -31 3 -32 2 -5 -22 c-3 -12 -18 -31 -33 -43
l-28 -21 -16 15 c-26 27 -72 -1 -89 -54 l-6 -20 -25 0 -24 0 0 13 c-1 13 -34
57 -44 57 -13 0 -36 -62 -36 -100 l0 -41 -15 -5 c-8 -4 -22 -1 -30 6 -8 7 -22
9 -31 6 l-16 -6 7 -28 c4 -15 8 -49 10 -75 l3 -49 -33 6 -32 6 -17 -24 c-9
-14 -16 -34 -16 -45 0 -28 -10 -51 -24 -51 -6 0 -24 -11 -41 -24 l-30 -25 12
-19 12 -19 -12 -12 c-17 -17 -27 -13 -27 9 l0 20 -25 0 -25 0 0 -19 c0 -10 7
-21 15 -25 l15 -5 0 -29 c0 -15 -6 -37 -14 -47 l-14 -19 -16 13 -15 13 -6 -24
c-3 -12 -7 -36 -9 -53 l-3 -30 -27 -3 -26 -3 -6 -39 -6 -38 -39 -37 -39 -37 0
-22 c0 -27 -18 -46 -42 -46 -22 0 -23 -13 -3 -30 17 -14 19 -48 5 -70 l-9 -15
-13 13 c-19 19 -27 15 -42 -23 l-15 -35 -15 0 c-8 0 -17 4 -21 10 -3 5 -12 7
-19 4 l-14 -5 2 -52 1 -52 -23 -3 c-13 -2 -30 2 -39 9 l-15 13 -14 -19 c-18
-24 -18 -35 1 -35 17 0 20 -25 5 -35 -12 -7 -218 -13 -237 -7 -7 2 -13 15 -13
28 l0 25 15 5 15 6 0 95 c0 100 18 233 31 233 4 0 19 -5 32 -11 l24 -11 21 11
20 10 -5 45 c-9 74 21 132 41 80 3 -8 10 -12 16 -9 l10 6 0 68 0 69 20 5 c11
3 29 21 40 40 l21 35 19 -5 19 -5 4 23 c3 13 5 37 5 53 0 15 4 32 9 37 l10 10
26 -21 27 -21 7 17 c3 9 1 37 -5 61 -7 24 -12 64 -12 89 l0 45 10 -6 c6 -3 10
-15 10 -26 l0 -21 13 4 c6 3 14 13 15 24 2 10 8 23 12 27 l8 9 26 -17 26 -17
10 27 c5 14 10 44 10 65 l0 38 44 39 44 38 3 25 c2 14 0 31 -4 38 l-8 12 15 6
c8 3 26 -2 40 -11 30 -20 46 -13 46 19 0 35 20 84 36 90 8 3 14 16 14 30 0 13
12 43 27 65 l27 41 16 -44 c40 -104 58 -105 58 -2 l1 68 -20 5 -20 6 21 19
c11 10 20 23 20 28 0 21 31 9 40 -15 5 -14 13 -25 18 -25 17 0 52 47 58 77 3
17 19 44 34 58 l29 28 17 -7 17 -7 33 32 32 31 18 -5 19 -5 -22 -7 c-23 -7
-31 -29 -15 -39 12 -7 102 38 99 49 -2 6 -13 11 -25 13 -29 4 -28 20 3 34 29
13 32 34 8 61 l-18 20 25 -7 c14 -5 39 -10 56 -13 l30 -5 12 26 c6 15 19 29
27 32 8 4 15 15 15 25 0 23 13 24 46 3 l25 -17 19 18 20 18 -11 14 c-7 7 -10
15 -8 17 12 11 70 36 81 35 7 0 3 -4 -9 -9 -50 -20 -7 -54 58 -46 l41 5 30 30
30 31 54 0 54 0 13 28 c6 15 24 39 39 54 l28 26 20 -28 20 -28 33 10 c17 6 42
15 55 19 l23 9 20 -11 21 -11 19 18 19 17 -6 23 -6 24 53 0 53 0 28 -27 28
-27 20 22 c12 12 25 22 30 22 5 0 12 11 16 25 7 29 12 30 84 11 l55 -14 27 16
c16 9 28 20 28 24 0 4 6 8 14 8 14 0 106 37 115 45 2 3 -2 11 -8 19 l-12 14
22 7 22 7 -14 9 c-19 12 -86 11 -94 -1 -3 -5 -27 -10 -53 -10 -65 -1 -269 -35
-285 -48 -7 -6 -31 -11 -52 -10 -44 2 -171 -24 -250 -49 -27 -9 -70 -20 -95
-24 -111 -19 -138 -29 -457 -185 -116 -57 -215 -104 -220 -104 -5 0 -25 -12
-44 -26 -19 -14 -50 -32 -69 -40 -19 -8 -51 -27 -70 -42 -19 -15 -52 -36 -72
-46 -38 -19 -84 -56 -212 -170 -38 -33 -81 -70 -97 -82 -51 -37 -332 -352
-374 -419 -11 -16 -39 -56 -62 -87 -24 -31 -43 -60 -43 -64 0 -4 -25 -45 -56
-91 -30 -47 -58 -92 -61 -101 -4 -10 -14 -28 -23 -42 -33 -48 -145 -264 -218
-420 -80 -171 -112 -236 -131 -270 -38 -65 -171 -349 -171 -364 0 -8 8 -22 17
-31 l17 -17 155 6 c292 13 485 51 581 116 25 16 49 30 53 30 47 0 274 221 344
335 37 60 61 106 82 154 30 72 156 326 184 374 58 98 104 166 140 207 22 25
53 62 71 83 79 96 235 221 326 260 19 8 50 27 69 41 19 14 39 26 44 26 4 0 32
11 60 24 177 81 250 106 442 153 55 13 125 31 155 38 30 8 98 21 150 30 52 9
116 20 141 26 25 5 81 14 125 19 157 17 250 31 324 50 41 10 120 26 174 35 55
9 107 20 116 25 9 5 54 18 100 30 82 20 208 59 280 85 19 8 60 21 90 31 30 10
78 27 105 40 28 12 70 30 95 39 65 25 316 150 376 188 28 18 81 52 116 77 36
25 106 73 155 107 50 34 108 79 129 100 21 21 75 67 119 103 43 36 88 80 98
98 21 35 19 53 -3 27z"/>
<path d="M9054 5523 c-131 -151 -247 -273 -266 -279 -26 -8 -180 -133 -214
-173 l-27 -32 6 -44 c4 -24 23 -79 43 -122 82 -174 158 -324 171 -334 7 -6 13
-17 13 -25 0 -15 58 -129 137 -269 164 -292 277 -461 397 -594 39 -44 87 -96
106 -118 51 -56 243 -228 335 -300 158 -123 555 -358 656 -388 23 -7 94 -37
131 -56 10 -5 27 -9 38 -9 10 0 34 -6 52 -14 106 -44 313 -90 546 -121 l123
-16 197 0 c108 1 224 6 257 12 33 6 96 15 140 19 44 5 118 16 165 25 47 9 105
20 130 25 58 11 240 73 308 105 29 14 56 25 61 25 13 0 82 33 114 54 l27 18 0
24 0 25 -17 6 c-10 3 -51 37 -90 75 -40 37 -91 81 -114 97 -22 17 -71 65 -108
108 -38 43 -83 90 -102 105 -19 15 -72 63 -118 107 -46 44 -100 88 -118 96
l-34 16 -112 -11 c-62 -6 -130 -15 -152 -21 -37 -9 -339 -31 -450 -33 l-50 -1
-31 23 -31 23 -89 1 -89 1 -22 13 c-12 8 -29 11 -38 8 l-16 -6 -17 15 c-9 8
-35 18 -57 22 -22 4 -53 15 -70 25 -16 9 -56 27 -87 39 -32 13 -63 30 -69 38
-7 8 -40 27 -74 42 -34 16 -65 33 -69 39 -3 6 -23 16 -44 23 -43 14 -112 57
-129 80 -7 9 -26 22 -42 29 -17 7 -33 21 -36 31 -4 11 -23 30 -43 43 -85 54
-315 314 -365 413 -10 18 -32 53 -49 78 -18 26 -38 56 -45 67 -6 11 -15 23
-21 27 -5 3 -33 51 -62 106 -65 122 -130 239 -180 319 -20 34 -45 78 -55 99
l-18 38 -28 14 -28 15 -11 -20 c-6 -11 -12 -56 -14 -100 -1 -44 -6 -83 -9 -86
-4 -4 -4 -17 -1 -30 3 -12 1 -32 -6 -43 l-11 -21 10 -36 10 -36 -29 -11 -30
-11 7 -21 c4 -11 8 -32 8 -48 2 -38 11 -43 35 -22 l20 19 11 -11 10 -10 -21
-25 c-27 -35 -25 -47 11 -98 l31 -43 5 -36 5 -37 -16 -13 c-17 -14 -36 -7 -36
15 0 19 -16 18 -24 -1 -3 -8 -14 -15 -24 -15 -31 0 -31 -9 -1 -42 l29 -31 -11
-13 c-6 -7 -9 -23 -7 -36 l3 -23 24 -3 c13 -2 28 1 33 6 l10 10 -16 31 -17 31
13 23 12 22 14 -37 c8 -21 21 -38 28 -38 l14 0 0 -24 0 -24 -25 -16 c-27 -18
-95 -22 -111 -6 -6 6 -44 17 -85 25 l-74 14 -3 -10 c-2 -5 -10 -9 -18 -9 -8 0
-28 -15 -45 -32 -16 -18 -29 -27 -29 -21 0 7 -13 28 -30 46 -16 19 -30 39 -30
45 0 5 -6 12 -14 15 -8 3 -17 20 -21 37 -4 17 -18 50 -31 73 -13 23 -24 49
-24 58 0 9 -11 29 -25 45 l-25 29 0 41 0 42 -17 -2 -18 -1 -3 26 -3 25 20 18
20 18 -11 18 c-13 20 -3 55 12 45 5 -3 10 -15 10 -26 l0 -21 12 4 13 5 2 58 2
59 16 8 15 9 0 51 0 50 36 -6 36 -7 5 19 c2 11 18 29 34 41 l29 22 0 39 0 40
59 0 59 0 6 24 6 25 35 12 c19 7 35 19 35 26 l0 13 40 0 40 0 0 53 0 52 -25
60 c-14 33 -25 68 -25 77 0 23 -81 108 -103 108 -8 0 -46 -35 -83 -77z m603
-1334 l30 -10 -5 -45 -5 -44 19 -21 19 -21 40 6 41 5 39 -13 c36 -13 60 -36
37 -36 -16 0 -23 -30 -12 -51 6 -10 20 -19 31 -19 11 0 37 -9 59 -20 22 -11
46 -20 53 -20 8 0 20 -7 28 -16 l13 -15 22 5 c13 4 26 2 29 -4 3 -5 24 -10 46
-10 l39 0 0 -29 c0 -17 -4 -32 -10 -36 -5 -3 -7 -12 -3 -21 l5 -14 32 5 31 5
19 -14 c10 -8 20 -30 22 -47 5 -43 5 -43 65 -30 l52 12 11 -11 11 -11 -19 -14
c-10 -8 -24 -16 -30 -18 l-11 -4 14 -16 13 -17 45 0 c24 0 53 5 64 10 l19 11
16 -9 15 -9 -15 -12 c-9 -8 -16 -17 -16 -22 0 -13 37 -11 45 2 l7 10 16 -14
c45 -39 149 -66 277 -72 l70 -3 30 -16 c17 -9 36 -16 43 -16 l12 0 0 -24 c0
-14 5 -28 10 -31 l10 -6 0 16 0 16 88 -1 c48 0 103 1 122 4 35 4 135 -18 155
-35 6 -4 31 -11 55 -15 25 -4 53 -13 64 -20 l18 -13 42 5 41 5 12 16 13 16 56
5 56 5 -2 -19 c-5 -47 23 -83 35 -45 l6 19 42 -5 c23 -3 50 -10 59 -14 9 -5
31 -9 49 -9 l32 0 -6 -30 -6 -29 13 -8 c8 -4 16 -19 18 -33 l3 -25 30 -3 c16
-2 46 2 67 9 l37 12 15 -12 15 -13 3 -41 3 -42 30 -5 30 -5 4 -20 c2 -11 11
-25 20 -33 l16 -13 -22 -15 -23 -16 0 -39 0 -39 -20 0 c-10 0 -24 -9 -30 -19
-5 -11 -29 -36 -53 -55 l-44 -36 -49 -3 c-27 -2 -65 -11 -84 -20 l-35 -17 -55
2 c-30 1 -82 -2 -115 -6 -33 -5 -76 -9 -95 -10 -19 -1 -45 -7 -57 -14 -29 -16
-44 -15 -84 5 l-34 18 -135 2 -135 3 -27 11 c-16 6 -28 18 -28 25 0 8 -11 19
-24 24 -13 5 -27 13 -30 18 l-6 9 -57 -3 c-32 -2 -80 -5 -108 -6 l-49 -3 -1
25 0 24 -55 28 c-30 15 -65 27 -77 27 l-22 1 -6 21 c-4 11 -21 29 -38 40 l-32
19 -38 0 -37 0 -11 23 c-5 12 -28 35 -49 50 l-40 28 -29 -22 c-38 -28 -54 -21
-70 30 -7 23 -19 45 -27 48 -8 3 -14 14 -14 24 l0 19 -27 11 c-16 6 -46 8 -69
5 -22 -3 -54 -2 -70 3 l-29 8 0 22 c0 13 -8 29 -18 36 -21 15 -22 25 -2 25 8
0 15 7 15 15 l0 15 -18 0 c-9 0 -40 20 -67 45 -28 25 -55 45 -61 45 -6 0 -28
18 -49 41 l-38 41 -42 -7 -43 -6 -7 11 -7 11 23 20 c12 10 30 19 41 19 10 0
18 4 18 9 0 18 -22 23 -46 10 l-24 -13 -47 20 c-25 10 -51 27 -57 38 l-11 19
13 4 c21 8 14 25 -25 58 l-38 33 24 25 24 26 -7 16 c-3 9 -20 23 -37 33 -73
39 -119 95 -119 142 0 11 -4 20 -10 20 -16 0 -12 27 5 34 8 3 15 14 15 25 0
21 68 101 86 101 6 0 25 -5 41 -11z"/>
<path d="M6825 5450 c-22 -5 -77 -16 -122 -26 l-83 -17 0 -12 c0 -21 39 -24
122 -10 45 8 85 12 90 9 5 -3 20 -3 33 0 l25 6 15 30 16 30 -28 -1 c-16 -1
-46 -5 -68 -9z"/>
<path d="M13992 4808 c-7 -7 -12 -22 -12 -35 l0 -23 19 0 c22 0 32 20 24 49
-6 24 -14 26 -31 9z"/>
<path d="M11620 4685 c-86 -18 -175 -52 -312 -121 l-113 -56 -80 -67 c-44 -36
-96 -78 -115 -93 -19 -14 -68 -57 -107 -95 l-73 -68 -6 -26 -5 -26 17 -17 17
-17 40 7 c23 3 66 15 96 26 l56 19 107 6 108 6 62 -16 c35 -9 90 -21 123 -27
193 -36 609 -247 767 -388 29 -26 86 -74 127 -107 41 -33 205 -191 365 -351
l291 -291 50 -28 c28 -15 75 -47 105 -70 49 -38 81 -58 182 -115 84 -48 129
-70 140 -70 7 0 26 -7 42 -15 16 -9 46 -20 65 -25 20 -5 79 -21 131 -34 l95
-25 158 -1 159 0 56 16 c186 52 228 69 376 154 60 34 154 98 161 110 3 5 30
25 58 44 60 40 245 234 271 285 l18 33 -16 16 -16 16 -36 -13 c-79 -29 -195
-52 -299 -61 l-110 -9 -142 29 c-79 16 -160 38 -180 48 -21 11 -49 23 -63 27
-103 29 -429 220 -572 334 -32 25 -76 60 -99 76 -22 17 -98 85 -167 151 -70
67 -149 141 -176 165 -27 24 -59 53 -71 64 -49 43 -191 173 -249 227 -33 32
-66 58 -72 58 -6 0 -23 14 -38 31 -15 17 -43 37 -61 44 -18 8 -46 25 -61 38
-16 12 -65 40 -109 62 -44 21 -105 51 -135 66 -52 26 -168 60 -270 79 -25 5
-130 9 -235 8 l-190 0 -65 -13z m460 -184 l10 -20 -12 -26 -11 -25 23 -25 c25
-27 46 -32 52 -13 l4 12 12 -8 c7 -4 12 -16 12 -26 0 -31 15 -31 49 0 18 17
38 30 45 30 7 0 25 10 40 21 30 24 31 23 54 -23 l17 -33 23 -3 24 -4 19 18 19
17 7 -18 6 -18 -16 -29 c-9 -17 -17 -47 -17 -68 l0 -39 -35 -35 -35 -35 0 -26
0 -26 -47 -47 c-57 -56 -100 -85 -113 -77 -15 9 -12 32 5 39 l15 5 0 30 c0 38
-11 44 -46 26 -16 -8 -37 -15 -47 -15 l-17 0 -11 24 -11 23 11 22 12 21 -11
20 c-6 11 -19 20 -29 20 -10 0 -24 7 -31 15 l-12 15 -30 -22 -30 -21 -10 16
-9 17 -25 0 -24 0 -12 -25 c-14 -30 -29 -32 -54 -4 l-18 21 17 29 17 30 -12
18 -12 19 27 32 c15 17 27 36 27 40 0 15 61 80 74 80 7 0 30 16 52 35 46 40
50 41 64 16z m-366 -97 c4 -14 4 -35 1 -45 l-7 -20 -21 3 -22 3 -3 18 c-4 19
23 67 37 67 5 0 12 -12 15 -26z m886 -171 c17 -48 26 -58 61 -65 77 -16 90
-22 119 -55 16 -18 30 -39 30 -46 0 -22 54 -66 89 -73 l34 -7 18 24 19 24 0
-27 c0 -15 -4 -29 -9 -32 -4 -3 -11 -34 -14 -68 -3 -35 -9 -72 -12 -83 l-7
-20 9 13 c5 7 22 14 38 15 l28 2 9 -32 c5 -18 13 -33 18 -33 5 0 10 -12 12
-27 l3 -28 28 -3 c15 -2 27 -8 27 -13 0 -5 13 -9 30 -9 l30 0 17 -27 c9 -16
18 -30 20 -32 2 -2 12 4 22 13 11 10 27 16 37 14 l18 -3 8 -33 9 -32 19 0 c11
0 24 -9 30 -20 6 -11 18 -20 27 -20 l15 0 -5 -27 c-8 -44 27 -92 83 -114 l25
-9 17 -40 17 -40 14 0 c8 0 20 7 27 15 18 22 47 18 61 -6 l11 -22 -6 -35 c-11
-70 19 -87 85 -50 l39 21 25 -11 25 -12 0 -24 0 -25 26 -20 26 -21 22 6 22 5
13 -15 13 -16 34 0 c19 0 34 5 34 10 0 6 9 10 20 10 22 0 27 -15 9 -26 l-11
-6 7 -44 6 -44 -10 0 c-6 0 -20 -9 -31 -20 l-20 -20 9 -24 10 -23 -11 -11 -12
-12 -12 11 -13 11 -40 -43 -41 -42 -56 6 c-30 3 -66 13 -80 22 l-24 16 -22
-12 c-29 -16 -119 -15 -157 1 l-31 12 0 19 0 19 -19 0 c-11 0 -21 5 -23 11 -2
7 -19 17 -38 23 l-34 11 -12 23 c-15 30 -44 51 -70 52 -11 0 -29 9 -39 20 -19
21 -55 27 -55 10 0 -16 -17 -12 -24 6 l-6 15 15 15 c30 31 11 64 -24 43 l-19
-13 -26 17 -26 17 2 32 3 32 -45 11 -45 11 -3 25 -3 26 15 13 c9 7 16 21 16
31 l0 19 -20 0 -20 0 0 -14 c0 -20 -16 -29 -40 -21 l-19 6 -3 47 -3 46 -32 10
-33 9 0 22 c0 30 -20 53 -50 57 l-25 3 0 30 0 30 -42 -3 -41 -4 5 59 5 59 -17
14 -17 14 -19 -13 -20 -12 -37 18 -37 18 0 44 0 44 -12 4 c-7 3 -27 -9 -44
-26 -35 -35 -49 -39 -49 -13 l0 18 -33 12 c-18 7 -43 12 -55 12 l-22 0 0 24
c0 14 5 28 10 31 6 3 10 26 10 50 0 24 5 66 11 93 l10 49 44 47 c24 26 45 57
47 68 l3 21 30 18 c17 10 42 18 58 18 l27 1 10 -27z m1495 -1273 c9 -15 -14
-40 -36 -40 -24 0 -33 18 -19 35 14 17 46 20 55 5z"/>
<path d="M4790 1577 c-3 -2 -117 -7 -254 -10 l-249 -6 -13 -13 -13 -13 -2
-439 -3 -439 19 -13 19 -14 308 0 308 0 21 21 21 21 -6 32 c-3 17 -14 37 -24
44 l-17 14 -248 -4 -248 -3 -9 15 c-5 8 -10 64 -10 123 l0 108 10 20 11 19
199 0 200 0 20 20 c25 25 25 48 0 80 l-19 25 -201 1 c-110 1 -204 4 -208 8 -4
4 -7 61 -7 127 l0 120 15 9 15 10 231 0 231 0 15 18 c8 9 18 31 21 47 l5 30
-14 19 -14 19 -52 5 c-29 2 -55 2 -58 -1z"/>
<path d="M5166 1567 l-18 -13 10 -204 c6 -113 9 -314 7 -447 l-3 -242 17 -14
16 -14 301 -7 302 -7 21 28 22 27 -6 26 c-3 14 -16 33 -28 44 l-22 18 -222 -5
-222 -5 -17 12 -16 12 6 370 c3 203 6 378 6 389 1 30 -28 45 -85 45 l-51 0
-18 -13z"/>
<path d="M5986 1560 l-13 -15 2 -449 2 -449 19 -14 c10 -7 33 -13 51 -13 l33
0 19 19 20 20 -6 159 -6 160 27 17 27 18 199 -5 199 -5 21 14 20 14 0 33 0 33
-19 17 -19 17 -212 -2 -212 -2 -14 15 -15 14 -3 123 -3 122 13 17 13 17 239 0
239 0 16 14 17 13 0 43 0 43 -17 13 -16 14 -304 0 -304 0 -13 -15z"/>
<path d="M7113 1573 c-23 -4 -73 -56 -73 -75 0 -12 -79 -207 -115 -283 -13
-27 -42 -95 -66 -150 -23 -55 -52 -120 -64 -145 -12 -25 -44 -88 -70 -141
l-47 -96 7 -22 c13 -42 96 -55 132 -22 l21 20 27 83 27 83 21 18 21 19 219 -4
219 -3 22 -28 c13 -16 33 -54 46 -85 13 -31 34 -72 47 -89 l24 -33 54 0 54 0
12 21 11 21 -52 101 c-29 56 -61 114 -71 129 -11 14 -19 31 -19 37 0 6 -22 57
-49 113 -27 57 -61 132 -74 168 -14 36 -42 103 -62 150 -21 47 -46 109 -58
138 l-20 53 -28 15 c-27 14 -52 16 -96 7z m71 -232 c7 -14 39 -90 71 -168 l57
-141 -4 -24 -3 -23 -165 0 -165 0 3 25 c1 14 13 48 26 75 71 149 106 228 106
239 0 6 7 21 15 33 l16 22 15 -6 c8 -3 21 -17 28 -32z"/>
<path d="M7648 1563 l-18 -20 0 -36 0 -36 23 -22 22 -21 108 7 108 7 24 -16
25 -16 0 -103 c0 -56 -5 -220 -11 -366 l-11 -264 20 -26 19 -26 50 -3 50 -3
13 16 14 16 -2 307 c-2 169 -5 337 -8 373 l-6 67 22 22 23 23 127 -6 128 -5
21 14 21 15 13 -8 c6 -4 81 -10 165 -13 l154 -5 15 -20 15 -20 -6 -120 c-3
-66 -9 -229 -12 -362 l-6 -241 25 -26 26 -26 25 0 c14 0 36 4 50 10 l26 10 0
389 0 389 15 12 15 13 124 -7 124 -6 26 11 26 12 6 24 c4 14 2 39 -3 56 l-9
32 -39 7 c-22 4 -71 5 -110 1 -38 -3 -191 -7 -340 -9 -148 -1 -285 -6 -303 -9
l-32 -7 -14 11 -14 11 -258 -1 c-143 0 -302 2 -354 6 l-95 7 -17 -19z"/>
<path d="M9617 1560 l-25 -20 -7 -37 c-3 -20 -33 -91 -65 -157 -32 -67 -66
-140 -74 -163 -9 -24 -23 -62 -31 -84 -21 -54 -73 -162 -135 -274 -76 -139
-81 -155 -60 -196 l11 -19 33 0 c18 0 47 5 64 11 l31 11 26 71 c15 40 34 88
43 107 l17 34 25 7 c14 4 114 7 223 8 l198 1 20 -10 c23 -13 51 -67 69 -133
l13 -48 30 -25 30 -25 45 3 45 3 10 16 10 17 -22 53 c-13 30 -42 88 -65 129
-44 77 -123 244 -152 321 -9 24 -26 73 -39 109 -12 36 -34 85 -49 110 -14 25
-26 51 -26 58 0 7 -10 36 -21 63 l-22 50 -28 14 c-15 8 -43 15 -62 15 l-34 0
-26 -20z m95 -202 c8 -13 33 -72 57 -133 24 -60 54 -131 68 -156 14 -26 23
-55 21 -65 l-3 -19 -157 -3 -157 -3 -11 20 -10 20 21 53 c11 29 33 80 48 113
15 33 36 83 46 110 30 82 53 101 77 63z"/>
<path d="M10338 1563 l-16 -18 2 -442 1 -442 17 -21 18 -20 40 0 40 0 21 21
21 21 -6 21 c-3 12 -6 90 -7 174 l-2 152 13 15 12 16 219 0 219 0 21 -21 22
-22 -7 -166 -7 -166 21 -22 21 -23 43 0 43 0 20 23 21 22 -9 215 c-8 199 -7
352 7 572 l5 87 -21 21 -20 20 -43 0 c-24 0 -52 -6 -63 -14 l-19 -14 0 -175
c0 -96 -4 -179 -8 -184 -5 -4 -108 -10 -230 -14 l-222 -5 -18 9 -19 9 3 180 4
180 -20 14 c-10 8 -38 14 -60 14 l-42 0 -15 -17z"/>
<path d="M12082 1561 c-35 -10 -84 -29 -109 -42 l-45 -23 -68 -74 -68 -73 -31
-74 -31 -74 -6 -69 -7 -69 13 -54 c48 -205 156 -317 389 -406 35 -13 98 -47
140 -76 85 -59 130 -79 212 -97 l57 -13 53 12 c80 18 111 31 142 59 l27 26 0
27 c0 32 -35 79 -59 79 -10 0 -36 -12 -57 -27 l-39 -27 -70 -4 -70 -4 -38 17
-38 16 3 22 3 22 41 15 c104 39 176 106 234 218 l32 60 8 72 c4 40 6 109 3
154 l-5 81 -39 75 c-70 136 -138 197 -271 246 l-57 20 -93 2 -93 1 -63 -18z
m307 -155 c64 -33 102 -78 140 -169 l31 -76 0 -79 0 -80 -36 -69 c-43 -81 -79
-116 -159 -154 l-60 -29 -70 0 c-158 0 -282 76 -329 201 l-17 46 -1 69 c-2
172 56 278 187 340 l50 24 108 0 108 0 48 -24z"/>
<path d="M14585 1560 l-18 -20 6 -242 c4 -134 10 -253 13 -265 4 -13 3 -43 0
-68 l-7 -45 -18 0 -18 0 -63 74 c-35 41 -76 94 -91 118 -15 24 -44 61 -63 83
-122 139 -179 211 -201 255 -14 27 -41 65 -61 85 l-36 36 -46 -3 -47 -3 -12
-26 -13 -26 10 -194 c5 -107 10 -258 10 -336 l0 -141 -15 -76 -14 -76 10 -28
c5 -16 21 -35 34 -42 l23 -13 46 7 46 7 11 21 11 20 -4 296 -3 297 21 3 21 3
36 -48 c20 -26 75 -97 122 -158 47 -60 119 -155 160 -210 107 -144 157 -202
183 -214 33 -16 77 -13 92 4 l12 15 -12 141 -13 141 7 96 c3 54 10 142 16 197
5 55 9 150 10 212 l0 112 -22 15 -22 16 -42 0 -41 0 -18 -20z"/>
<path d="M15014 1559 l-14 -16 0 -439 0 -440 14 -19 13 -19 214 2 c118 1 237
4 264 8 177 23 317 158 369 356 l18 67 -5 48 c-3 26 -12 75 -20 108 l-14 60
-46 70 c-66 100 -94 128 -167 168 l-65 35 -85 11 c-47 6 -170 13 -273 14
l-188 2 -15 -16z m530 -150 c100 -44 156 -122 178 -246 l12 -72 -17 -73 -18
-74 -27 -41 c-72 -107 -149 -138 -377 -148 l-120 -6 -17 13 -17 13 -2 319 -2
319 19 14 19 14 164 -7 164 -7 41 -18z"/>
<path d="M16112 1567 l-13 -15 0 -453 -1 -453 18 -13 19 -14 40 6 c22 3 47 12
55 20 l14 15 1 444 0 445 -12 12 c-6 6 -34 14 -60 16 l-49 5 -12 -15z"/>
<path d="M16539 1563 l-14 -16 3 -446 4 -446 14 -15 14 -14 297 3 298 3 12 10
13 10 0 44 0 44 -24 15 -24 16 -217 -11 -216 -11 -16 12 -15 13 3 387 3 387
-13 16 -13 16 -48 0 -48 0 -13 -17z"/>
<path d="M1411 1551 c-10 -10 -26 -43 -35 -72 -17 -54 -30 -83 -100 -231 -20
-42 -36 -79 -36 -82 0 -3 -18 -44 -41 -93 -23 -48 -50 -110 -61 -138 -11 -27
-34 -77 -53 -110 -18 -33 -42 -84 -54 -114 l-20 -54 9 -18 c13 -24 38 -30 83
-20 55 13 72 33 103 119 l27 77 24 23 24 22 212 0 213 0 20 -15 21 -14 27 -73
c14 -40 36 -86 49 -101 l22 -28 58 -6 59 -6 9 14 c16 26 9 56 -24 105 -38 56
-142 266 -212 429 -25 61 -62 142 -80 180 -19 39 -41 94 -49 124 -9 30 -26 65
-38 78 l-21 23 -59 0 -58 0 -19 -19z m96 -193 c24 -32 143 -331 143 -360 l0
-18 -155 0 -156 0 -5 15 c-6 15 47 178 77 235 10 19 28 59 40 88 21 52 38 63
56 40z"/>
<path d="M2148 1553 l-16 -18 3 -439 3 -440 17 -12 16 -12 267 2 267 2 67 22
67 22 31 32 c43 43 50 66 50 163 0 100 -5 115 -64 180 -54 59 -54 60 -17 111
16 21 37 65 47 96 l17 57 -18 60 -18 60 -36 35 c-75 73 -140 87 -441 93 l-226
4 -16 -18z m460 -113 l49 -11 36 -30 37 -30 11 -39 12 -39 -20 -38 -19 -38
-48 -24 -47 -24 -151 -2 -151 -2 -16 16 -16 16 2 100 c0 55 2 108 2 118 1 10
11 22 24 27 31 12 236 12 295 0z m119 -420 l42 -23 15 -49 14 -49 -8 -28 c-4
-16 -13 -37 -19 -48 l-10 -20 -71 -27 -71 -26 -159 0 -159 0 -7 12 c-11 17
-14 240 -3 260 l9 17 68 4 c37 2 123 4 192 3 l125 -2 42 -24z"/>
<path d="M3173 1555 l-17 -13 3 -443 2 -444 17 -12 16 -13 198 0 c354 0 424
24 559 191 20 24 42 55 50 69 l13 25 4 162 4 162 -32 63 -32 63 -60 62 c-33
34 -83 73 -110 88 l-49 27 -67 10 c-37 5 -160 11 -275 12 l-208 3 -16 -12z
m522 -144 c100 -46 176 -152 190 -265 l6 -51 -15 -72 c-8 -39 -25 -91 -38
-115 l-24 -43 -45 -30 c-25 -17 -75 -41 -111 -52 l-65 -22 -125 -7 -125 -7
-22 22 -21 21 0 315 0 314 18 11 17 11 155 -4 155 -3 50 -23z"/>
<path d="M13227 1559 c-21 -12 -92 -153 -132 -259 -15 -41 -31 -79 -36 -85 -4
-5 -24 -50 -44 -100 -20 -49 -77 -170 -126 -268 -110 -221 -111 -237 -23 -237
l42 0 29 24 c28 23 38 42 80 149 9 23 21 47 27 54 l11 12 220 5 c120 2 229 0
240 -4 22 -8 53 -62 81 -143 9 -26 28 -57 42 -67 l25 -20 42 0 42 0 18 20 18
20 -16 18 c-10 10 -17 22 -17 26 0 5 -22 47 -48 95 -27 47 -61 118 -77 156
-16 39 -34 77 -41 85 -13 16 -46 88 -62 135 -35 102 -144 351 -163 371 l-22
24 -46 0 c-25 0 -54 -5 -64 -11z m98 -239 c14 -28 37 -81 50 -118 13 -37 37
-93 54 -124 l29 -58 -5 -19 -5 -19 -151 -4 -152 -5 -12 10 c-18 14 -16 35 10
97 69 161 137 290 153 290 2 0 15 -23 29 -50z"/>
</g>
</svg>
