<?xml version="1.0" standalone="no"?>
<!DOCTYPE svg PUBLIC "-//W3C//DTD SVG 20010904//EN"
 "http://www.w3.org/TR/2001/REC-SVG-20010904/DTD/svg10.dtd">
<svg version="1.0" xmlns="http://www.w3.org/2000/svg"
 width="600.000000pt" height="302.000000pt" viewBox="0 0 600.000000 302.000000"
 preserveAspectRatio="xMidYMid meet">
<g transform="translate(0.000000,302.000000) scale(0.100000,-0.100000)"
fill="#000000" stroke="none">
<path d="M2258 2934 c-2 -1 -16 -5 -32 -8 -55 -10 -161 -71 -211 -121 -68 -67
-139 -171 -184 -270 -10 -22 -61 -134 -114 -250 -52 -115 -109 -241 -127 -280
-64 -140 -70 -155 -70 -161 0 -3 -12 -31 -26 -62 -14 -31 -30 -66 -34 -77 -5
-11 -23 -51 -40 -89 -30 -68 -38 -102 -22 -92 10 6 52 91 105 211 19 44 72
163 117 265 46 102 109 246 142 320 167 379 240 483 388 554 59 28 74 31 165
31 87 0 107 -3 155 -26 119 -56 221 -183 331 -414 40 -84 59 -134 55 -148 -14
-53 -196 -290 -196 -256 0 16 -44 126 -89 221 -17 37 -31 72 -31 78 0 5 -4 10
-10 10 -5 0 -10 6 -10 12 0 23 -53 118 -88 159 -61 71 -108 84 -173 48 -70
-40 -114 -119 -280 -500 -56 -129 -106 -245 -111 -259 -8 -19 -29 -33 -85 -54
-127 -50 -305 -169 -354 -237 -27 -38 -13 -37 31 4 56 52 132 107 140 102 4
-3 10 1 13 9 7 17 80 58 154 86 76 28 109 54 129 98 18 40 36 80 83 187 18 39
36 78 41 87 6 10 10 23 10 28 0 6 18 49 40 96 22 47 40 88 40 92 0 18 67 142
98 180 63 79 136 92 184 32 13 -15 33 -41 46 -57 12 -15 25 -40 29 -55 3 -15
9 -25 14 -22 5 3 9 1 9 -5 0 -6 12 -36 26 -68 14 -32 39 -89 56 -128 75 -174
80 -180 121 -149 56 43 187 238 187 280 0 26 -128 288 -172 353 -43 62 -135
159 -178 186 -53 33 -131 56 -204 59 -36 2 -67 2 -68 0z"/>
<path d="M3677 2924 c-3 -4 -23 -10 -44 -14 -56 -12 -74 -17 -118 -33 -45 -16
-227 -106 -235 -116 -3 -3 -23 -19 -45 -35 -115 -83 -221 -218 -327 -416 -138
-257 -282 -376 -543 -448 -105 -29 -136 -36 -215 -47 -19 -3 -57 -9 -85 -14
-27 -5 -68 -12 -90 -16 -22 -4 -71 -18 -108 -31 -284 -100 -489 -285 -630
-569 -143 -289 -150 -306 -138 -318 7 -7 46 -11 105 -11 83 1 101 4 159 32 97
45 153 106 218 237 62 124 124 198 207 248 53 32 153 72 205 81 12 3 22 5 22
7 0 1 11 3 25 4 14 1 32 5 40 8 8 3 22 5 30 5 13 0 203 33 267 46 129 27 373
141 471 221 99 80 265 261 306 333 6 11 30 48 54 82 23 34 42 66 42 70 0 5 6
15 13 22 6 7 32 40 57 72 84 111 224 204 360 240 70 19 283 16 320 -4 14 -8
29 -13 33 -12 11 3 121 -50 125 -60 2 -5 8 -8 13 -8 11 0 11 0 83 -61 53 -44
126 -130 126 -147 0 -6 6 -17 13 -24 16 -16 40 -68 61 -130 35 -105 41 -312
11 -413 -21 -70 -54 -147 -69 -157 -6 -4 -7 -8 -3 -8 4 0 -3 -16 -17 -36 -13
-20 -22 -42 -20 -49 11 -27 -14 -23 -47 8 -19 17 -43 37 -54 43 -11 5 -42 23
-70 38 -65 37 -168 58 -253 52 -93 -7 -196 -59 -281 -142 -43 -42 -62 -68 -58
-78 4 -9 12 -16 19 -16 169 -1 259 -15 280 -45 4 -5 8 -7 8 -3 0 11 88 -39
140 -80 25 -19 81 -70 125 -114 145 -142 189 -177 272 -218 99 -48 139 -58
223 -54 82 3 102 8 170 41 68 33 200 157 200 189 0 28 -20 35 -64 23 -19 -5
-47 -7 -63 -4 -15 3 -46 7 -68 9 -42 4 -145 40 -154 54 -3 5 -20 16 -38 24
-58 29 -294 240 -281 253 5 6 57 -39 176 -152 18 -18 42 -33 51 -33 18 0 64
46 90 91 32 53 91 179 91 193 0 8 4 17 9 21 6 3 13 26 17 50 3 25 9 43 13 41
3 -2 7 10 8 27 0 18 4 50 8 72 12 62 9 264 -4 327 -7 32 -14 68 -15 80 -2 13
-6 30 -9 38 -3 8 -13 37 -22 65 -17 53 -103 223 -121 240 -5 6 -22 26 -36 45
-38 51 -137 151 -183 185 -22 17 -46 36 -54 43 -19 19 -231 119 -266 126 -51
11 -78 16 -129 26 -54 11 -299 14 -309 4z m381 -44 c175 -42 331 -131 453
-257 127 -131 210 -275 266 -458 25 -84 27 -103 27 -270 0 -198 -11 -257 -74
-408 -34 -83 -118 -220 -131 -215 -4 2 -47 39 -96 84 -48 44 -98 86 -111 93
l-22 12 28 37 c76 98 129 298 118 447 -21 304 -215 555 -496 640 -51 16 -93
20 -190 19 -115 0 -132 -3 -210 -32 -103 -39 -202 -105 -271 -180 -28 -30
-105 -136 -172 -236 -279 -416 -524 -570 -1016 -641 -331 -48 -474 -137 -594
-371 -68 -134 -108 -181 -186 -223 -53 -28 -74 -33 -166 -39 -58 -4 -104 -5
-102 -2 1 3 46 93 99 200 107 218 162 302 267 408 87 87 164 140 286 198 106
51 195 75 350 98 420 62 625 183 789 466 14 25 47 82 72 127 115 201 247 336
414 422 84 44 214 87 305 101 87 13 267 4 363 -20z m102 -1351 c79 -38 136
-82 287 -221 176 -162 305 -230 443 -232 41 0 87 2 103 7 15 4 27 4 27 -1 0
-4 -27 -35 -59 -69 -170 -174 -373 -189 -585 -43 -25 17 -104 87 -176 155
-144 138 -192 173 -283 215 -105 48 -213 60 -297 35 -22 -7 -21 -3 15 34 56
59 127 110 193 138 50 21 70 23 157 21 91 -3 107 -7 175 -39z"/>
<path d="M4160 2626 c0 -2 8 -10 18 -17 15 -13 16 -12 3 4 -13 16 -21 21 -21
13z"/>
<path d="M4220 2546 c0 -2 8 -10 18 -17 15 -13 16 -12 3 4 -13 16 -21 21 -21
13z"/>
<path d="M4260 2541 c0 -6 4 -13 10 -16 6 -3 7 1 4 9 -7 18 -14 21 -14 7z"/>
<path d="M2975 2139 c-4 -6 -5 -12 -2 -15 2 -3 7 2 10 11 7 17 1 20 -8 4z"/>
<path d="M4721 1864 c0 -11 3 -14 6 -6 3 7 2 16 -1 19 -3 4 -6 -2 -5 -13z"/>
<path d="M4691 1794 c0 -11 3 -14 6 -6 3 7 2 16 -1 19 -3 4 -6 -2 -5 -13z"/>
<path d="M4667 1461 c-4 -17 -3 -21 5 -13 5 5 8 16 6 23 -3 8 -7 3 -11 -10z"/>
<path d="M1321 1154 c0 -11 3 -14 6 -6 3 7 2 16 -1 19 -3 4 -6 -2 -5 -13z"/>
<path d="M1356 1057 c3 -10 9 -15 12 -12 3 3 0 11 -7 18 -10 9 -11 8 -5 -6z"/>
<path d="M3976 1503 c-6 -14 -5 -15 5 -6 7 7 10 15 7 18 -3 3 -9 -2 -12 -12z"/>
<path d="M4136 1473 c-6 -14 -5 -15 5 -6 7 7 10 15 7 18 -3 3 -9 -2 -12 -12z"/>
<path d="M4354 1349 c-4 -7 -3 -9 4 -5 5 3 12 0 15 -6 2 -7 7 -10 11 -7 4 3 0
12 -8 18 -11 9 -16 9 -22 0z"/>
<path d="M4600 1152 c0 -5 11 -14 25 -20 14 -6 25 -10 25 -8 0 2 -11 11 -25
20 -14 9 -25 13 -25 8z"/>
<path d="M2659 2523 l-24 -28 28 24 c25 23 32 31 24 31 -2 0 -14 -12 -28 -27z"/>
<path d="M2695 2219 c-4 -6 -5 -12 -2 -15 2 -3 7 2 10 11 7 17 1 20 -8 4z"/>
<path d="M3013 1858 c-26 -24 -54 -51 -61 -60 -7 -10 -39 -38 -72 -63 -47 -36
-59 -51 -58 -70 1 -14 6 -25 10 -25 3 0 10 -10 14 -22 12 -38 78 -173 86 -176
5 -2 6 -7 3 -12 -3 -4 2 -13 10 -20 8 -7 15 -16 15 -21 0 -12 44 -80 96 -149
43 -56 158 -179 160 -170 1 3 26 -13 56 -36 76 -57 175 -105 293 -145 95 -31
107 -33 255 -33 177 -1 188 1 325 51 75 28 125 58 125 75 0 11 -148 158 -212
211 -24 21 -39 27 -58 22 -14 -3 -66 -9 -117 -12 -183 -11 -359 55 -488 181
-66 65 -165 201 -165 226 0 5 -4 10 -8 10 -6 0 -52 79 -57 100 -6 23 -79 161
-90 170 -11 9 -23 3 -62 -32z m57 10 c0 -23 121 -251 184 -346 114 -173 246
-275 421 -323 68 -18 96 -21 195 -16 63 3 124 7 134 9 13 2 55 -30 132 -102
61 -58 112 -107 113 -110 1 -6 -90 -44 -154 -64 -215 -65 -489 -39 -688 67
-138 74 -286 206 -361 320 -60 93 -207 382 -196 385 32 11 200 164 200 182 0
6 5 10 10 10 6 0 10 -5 10 -12z"/>
<path d="M3040 1760 c6 -11 13 -20 16 -20 2 0 0 9 -6 20 -6 11 -13 20 -16 20
-2 0 0 -9 6 -20z"/>
<path d="M3000 1762 c0 -5 12 -19 27 -33 l26 -24 -23 33 c-25 33 -30 38 -30
24z"/>
<path d="M2950 1702 c6 -13 14 -21 18 -18 3 4 -2 14 -12 24 -18 16 -18 16 -6
-6z"/>
<path d="M2980 1713 c0 -6 8 -17 18 -24 16 -13 16 -13 2 6 -8 11 -16 22 -17
24 -2 2 -3 0 -3 -6z"/>
<path d="M3130 1666 c0 -6 42 -79 50 -86 13 -12 50 -70 50 -78 0 -5 8 -16 17
-23 19 -16 22 -21 -46 93 -46 77 -71 110 -71 94z"/>
<path d="M3005 1640 c10 -11 20 -20 23 -20 3 0 -3 9 -13 20 -10 11 -20 20 -23
20 -3 0 3 -9 13 -20z"/>
<path d="M3050 1480 c8 -5 20 -10 25 -10 6 0 3 5 -5 10 -8 5 -19 10 -25 10 -5
0 -3 -5 5 -10z"/>
<path d="M2372 546 c-20 -10 -54 -68 -102 -181 -5 -11 -20 -46 -34 -78 -14
-32 -26 -64 -26 -71 0 -15 21 -26 47 -26 17 0 63 48 63 66 0 11 91 17 123 8 9
-3 24 -21 32 -40 10 -25 20 -34 37 -34 45 0 63 45 33 84 -8 10 -12 22 -10 26
3 4 -2 13 -10 20 -8 7 -15 18 -15 24 0 6 -7 24 -15 40 -9 16 -13 31 -10 34 2
3 -4 17 -14 31 -10 14 -21 35 -25 47 -3 11 -16 30 -29 41 -18 15 -26 17 -45 9z
m108 -173 c36 -81 67 -150 68 -155 2 -4 -7 -8 -21 -8 -20 0 -28 8 -41 40 l-16
40 -83 0 -84 0 -12 -40 c-10 -33 -16 -40 -37 -40 -14 0 -24 4 -22 9 2 5 32 74
67 155 59 133 67 146 90 146 24 0 32 -14 91 -147z"/>
<path d="M2376 455 c-4 -15 -17 -49 -31 -76 l-23 -49 64 0 c35 0 64 1 64 3 0
6 -57 138 -62 143 -3 2 -9 -7 -12 -21z m34 -97 c0 -4 -11 -8 -25 -8 -28 0 -30
3 -14 32 11 21 12 21 25 3 8 -10 14 -22 14 -27z"/>
<path d="M712 527 c-14 -15 -17 -44 -17 -165 -1 -110 2 -150 12 -160 10 -10
38 -13 111 -10 111 5 117 6 147 33 35 31 46 84 24 119 -13 22 -16 41 -12 82 9
87 -29 113 -171 117 -64 2 -80 -1 -94 -16z m234 -40 c29 -34 30 -57 6 -87 -18
-22 -18 -23 5 -46 34 -34 29 -89 -10 -118 -22 -16 -46 -21 -127 -24 l-100 -4
0 158 0 159 101 -5 c95 -5 102 -7 125 -33z"/>
<path d="M763 438 l1 -48 59 0 c70 0 97 12 97 44 0 34 -17 43 -91 48 l-67 4 1
-48z m125 0 c-2 -19 -10 -24 -47 -26 -48 -4 -65 6 -55 31 5 13 19 17 56 17 46
0 49 -2 46 -22z"/>
<path d="M766 305 l2 -50 43 -3 c91 -7 139 20 124 68 -7 22 -24 28 -110 32
l-60 4 1 -51z m140 10 c11 -28 -15 -45 -72 -45 -50 0 -54 2 -54 24 0 28 8 32
73 35 35 1 49 -3 53 -14z"/>
<path d="M1113 542 c-32 -2 -56 -9 -65 -19 -18 -23 -20 -309 -2 -324 23 -19
183 -7 229 17 40 21 87 87 92 129 5 38 -18 112 -42 136 -33 33 -54 50 -60 48
-3 -1 -16 2 -28 6 -29 9 -61 11 -124 7z m157 -40 c73 -38 101 -156 53 -221
-36 -48 -79 -65 -175 -69 l-88 -4 0 156 0 156 88 0 c65 0 96 -5 122 -18z"/>
<path d="M1102 368 c3 -128 3 -127 95 -113 67 10 95 40 101 108 4 52 2 58 -26
87 -28 28 -36 30 -102 30 l-71 0 3 -112z m145 69 c7 -7 17 -33 21 -59 8 -40 6
-50 -12 -73 -18 -23 -30 -27 -76 -28 l-55 -2 -3 79 c-2 44 -1 85 2 92 7 17
105 9 123 -9z"/>
<path d="M1431 538 c-27 -10 -30 -25 -32 -179 -1 -111 2 -144 13 -156 11 -10
41 -14 109 -14 105 -1 149 11 149 40 0 31 -24 42 -101 44 -63 2 -74 5 -77 21
-5 26 15 36 73 36 52 1 80 15 80 40 -1 33 -16 40 -86 40 -62 0 -69 2 -69 20 0
12 7 20 18 20 55 2 129 13 140 22 14 12 15 37 3 57 -7 11 -34 15 -106 15 -53
1 -104 -2 -114 -6z m209 -39 c0 -19 -5 -20 -85 -17 l-85 3 0 -47 0 -48 80 0
c74 0 80 -1 80 -21 0 -19 -5 -20 -80 -17 l-80 3 0 -53 0 -53 90 3 c88 3 90 2
90 -19 0 -23 -2 -23 -113 -23 l-113 0 0 155 1 155 107 0 c103 0 108 -1 108
-21z"/>
<path d="M1724 536 c-12 -9 -17 -34 -20 -97 -3 -46 -7 -92 -9 -101 -2 -10 0
-18 3 -18 4 0 6 -24 4 -53 -5 -74 5 -80 131 -80 91 1 103 3 118 22 l18 22 11
-21 c13 -24 37 -26 67 -5 17 12 20 22 16 54 -6 46 0 52 73 56 58 3 84 17 84
45 0 29 -25 41 -89 41 -64 1 -76 7 -66 38 4 15 16 18 71 19 48 0 71 5 85 18
48 44 14 64 -114 69 -87 3 -108 1 -119 -12 -9 -11 -14 -51 -15 -122 -2 -186
-2 -179 -18 -157 -12 16 -27 19 -85 18 -38 0 -70 2 -71 6 0 4 -2 59 -4 123 -1
64 -5 121 -9 127 -10 16 -44 21 -62 8z m46 -151 l0 -135 85 0 c78 0 85 -2 85
-20 0 -19 -7 -20 -105 -20 l-105 0 0 155 c0 148 1 155 20 155 19 0 20 -7 20
-135z m450 114 c0 -20 -4 -21 -90 -17 l-90 3 0 -52 0 -53 80 0 c73 0 80 -2 80
-20 0 -18 -7 -20 -80 -20 l-80 0 0 -65 c0 -58 -2 -65 -20 -65 -19 0 -20 7 -20
155 l0 155 110 0 c105 0 110 -1 110 -21z"/>
<path d="M2595 542 c-51 -4 -65 -17 -65 -56 0 -30 1 -31 47 -31 l48 0 2 -118
c2 -121 9 -147 43 -147 38 0 49 31 52 145 l3 110 45 11 c25 6 65 9 90 6 42 -3
45 -6 44 -30 -1 -15 -3 -29 -4 -32 -1 -3 -1 -9 0 -15 1 -5 2 -44 2 -85 0 -86
9 -110 42 -110 39 0 46 20 49 146 l2 119 31 0 c33 0 74 28 74 50 0 28 -32 39
-113 37 -129 -2 -258 -2 -307 1 -25 1 -63 1 -85 -1z m205 -43 c0 -19 -5 -21
-50 -17 l-50 3 0 -137 0 -138 -25 0 -26 0 2 137 1 137 -51 -3 c-46 -2 -51 0
-51 18 0 20 5 21 125 21 120 0 125 -1 125 -21z m280 0 c0 -19 -5 -21 -55 -17
l-55 3 0 -137 c0 -136 0 -138 -22 -138 -23 0 -23 1 -20 137 l3 138 -50 -3
c-46 -4 -51 -2 -51 17 0 20 5 21 125 21 120 0 125 -1 125 -21z"/>
<path d="M3208 538 c-21 -18 -52 -67 -68 -108 -7 -19 -23 -57 -36 -85 -47
-105 -54 -127 -44 -140 5 -6 8 -14 5 -17 -3 -2 9 -3 25 0 20 3 38 16 52 36 29
41 37 46 73 42 17 -2 42 -4 56 -5 19 -1 30 -10 42 -36 13 -27 23 -35 44 -35
14 0 35 8 46 17 18 17 19 17 28 0 6 -9 18 -17 28 -17 33 0 51 23 52 65 1 70 3
72 66 71 l57 -1 3 -55 c4 -71 8 -80 36 -80 50 0 57 24 57 183 0 119 -3 148
-16 161 -19 19 -25 20 -46 4 -18 -15 -42 -83 -34 -97 11 -18 -22 -31 -70 -28
l-49 3 -1 51 c0 60 -14 82 -49 76 -32 -7 -49 -57 -45 -138 1 -33 2 -67 1 -75
0 -8 -1 -33 -1 -54 0 -38 0 -39 -20 -21 -11 10 -20 24 -20 32 0 7 -5 21 -10
31 -9 16 -52 111 -55 122 -3 14 -39 77 -53 93 -18 20 -33 22 -54 5z m282 -85
l0 -64 87 3 87 3 -3 63 c-2 61 -2 62 23 62 l26 0 0 -155 0 -155 -26 0 c-25 0
-25 1 -23 71 l2 71 -86 1 -87 2 0 -72 c0 -66 -2 -73 -20 -73 -19 0 -20 7 -20
159 0 154 1 159 20 154 17 -5 20 -14 20 -70z m-172 -71 c83 -187 78 -172 50
-172 -20 0 -27 8 -38 40 l-13 40 -83 0 -82 0 -16 -40 c-13 -32 -21 -40 -42
-40 -14 0 -24 3 -22 8 2 4 17 36 34 72 17 36 46 102 65 147 30 74 37 83 60 83
25 0 31 -11 87 -138z"/>
<path d="M3225 465 c-4 -11 -17 -45 -31 -75 l-23 -55 35 -3 c19 -2 47 -2 62 0
l28 3 -32 75 c-26 59 -34 71 -39 55z m19 -77 c9 -35 8 -38 -14 -38 -11 0 -20
3 -20 8 0 19 13 52 20 52 4 0 10 -10 14 -22z"/>
<path d="M4002 529 c-96 -48 -135 -141 -97 -233 8 -19 12 -36 10 -40 -3 -3 -2
-4 1 -1 4 2 23 -9 43 -26 56 -47 59 -48 64 -42 9 9 66 -30 60 -41 -3 -6 -3 -8
2 -4 4 4 16 3 26 -3 11 -5 40 -10 65 -11 38 0 51 4 78 31 17 17 39 31 48 31 9
0 29 16 45 36 26 32 35 37 79 39 27 1 55 0 62 -3 12 -4 37 -49 34 -63 -2 -13
66 -8 78 5 13 17 -3 69 -45 151 -12 22 -27 60 -35 85 -8 25 -17 47 -20 50 -3
3 -13 17 -23 33 -20 31 -56 36 -80 10 -8 -10 -31 -53 -49 -96 -19 -42 -38 -74
-43 -70 -4 5 -5 3 -2 -3 4 -6 -5 -34 -18 -63 -14 -28 -25 -55 -25 -61 0 -5 -6
-10 -12 -10 -7 0 -24 -3 -38 -7 l-25 -6 24 23 c51 50 66 145 33 209 -9 19 -37
49 -62 66 -57 40 -117 44 -178 14z m159 -25 c101 -52 101 -226 0 -272 -48 -22
-48 -22 -31 -32 21 -13 74 -12 87 1 13 13 33 4 33 -15 0 -16 -43 -36 -78 -36
-15 0 -40 9 -57 20 -49 32 -58 37 -103 56 -102 42 -126 183 -44 257 50 45 130
54 193 21z m366 -139 c70 -152 70 -155 46 -155 -19 0 -28 8 -40 40 l-16 40
-82 0 -83 0 -16 -40 c-13 -32 -21 -40 -41 -40 -26 0 -32 9 -16 25 8 8 61 123
117 253 10 23 21 32 37 32 21 0 33 -20 94 -155z"/>
<path d="M4033 476 c-61 -27 -87 -99 -58 -160 23 -47 65 -70 119 -63 126 17
131 212 6 232 -20 3 -48 -1 -67 -9z m77 -27 c0 -5 4 -8 9 -4 14 8 51 -45 51
-74 0 -32 -37 -94 -50 -86 -6 3 -10 1 -10 -5 0 -11 -34 -9 -77 5 -49 16 -59
116 -15 152 28 24 92 32 92 12z"/>
<path d="M4404 407 c-16 -39 -30 -74 -31 -77 -2 -3 26 -5 62 -5 36 0 65 0 65
0 0 0 -15 35 -34 77 l-33 77 -29 -72z m46 -43 c0 -8 -9 -14 -20 -14 -22 0 -23
1 -14 24 7 18 34 10 34 -10z"/>
<path d="M4644 536 c-17 -13 -19 -30 -22 -166 -4 -161 0 -180 43 -180 32 0 44
20 50 81 3 30 6 62 7 72 2 15 8 12 30 -15 15 -18 28 -36 28 -40 0 -11 91 -98
102 -98 5 0 18 5 29 10 17 10 19 23 19 160 0 81 -3 155 -6 164 -7 18 -59 22
-69 6 -10 -16 -15 -51 -16 -107 l-1 -51 -31 36 c-18 20 -40 45 -51 55 -10 9
-16 17 -12 17 4 0 -9 16 -28 35 -40 39 -44 41 -72 21z m135 -133 l92 -116 -3
116 c-3 116 -3 117 20 117 22 0 22 -1 22 -155 0 -141 -2 -155 -17 -155 -11 1
-56 49 -108 116 l-90 115 -3 -116 c-2 -107 -4 -115 -22 -115 -19 0 -20 7 -20
155 0 197 2 198 129 38z"/>
<path d="M5026 540 c-39 -7 -46 -35 -47 -182 0 -127 12 -172 46 -174 11 0 53
3 93 7 137 15 198 76 190 195 -3 53 -9 68 -32 93 -16 17 -44 37 -62 46 -35 16
-138 25 -188 15z m194 -42 c53 -36 72 -70 73 -125 2 -107 -58 -155 -198 -161
l-90 -4 0 156 0 156 91 0 c78 0 96 -3 124 -22z"/>
<path d="M5050 366 l0 -119 63 5 c35 3 72 11 84 18 49 31 67 104 38 159 -18
36 -34 43 -117 50 l-68 6 0 -119z m151 66 c10 -12 18 -25 18 -29 -1 -4 1 -16
5 -25 10 -23 -20 -83 -47 -95 -12 -5 -40 -9 -62 -9 l-40 1 -2 80 c-1 44 0 85
2 91 6 21 104 9 126 -14z"/>
<path d="M5365 530 c-14 -16 -17 -45 -19 -174 -1 -152 -1 -155 21 -161 12 -3
33 0 46 6 24 11 24 12 23 162 -1 84 -4 157 -8 163 -14 21 -46 22 -63 4z m55
-166 l0 -154 -25 0 -25 0 0 159 0 158 25 -5 25 -4 0 -154z"/>
<path d="M5518 538 c-24 -20 -30 -62 -28 -197 1 -158 0 -156 129 -153 78 2
100 6 115 21 37 37 -17 75 -88 62 -5 -1 -22 1 -37 4 l-29 7 0 117 c0 102 -3
120 -18 134 -22 20 -24 20 -44 5z m42 -155 l0 -134 83 2 c77 2 82 1 85 -19 3
-21 0 -22 -106 -22 l-109 0 3 153 c2 83 4 155 4 159 0 3 9 4 20 1 19 -5 20
-14 20 -140z"/>
<path d="M463 528 c-44 -71 -144 -305 -137 -322 3 -9 17 -16 31 -16 21 0 44
17 80 63 8 10 29 14 70 13 54 -1 59 -3 72 -31 18 -38 29 -46 61 -42 45 6 36
48 -51 235 -16 34 -29 66 -29 71 0 33 -79 56 -97 29z m130 -157 c37 -81 67
-151 67 -155 0 -3 -11 -6 -23 -6 -19 0 -27 8 -37 40 l-13 40 -83 0 -82 0 -16
-40 c-13 -32 -21 -40 -41 -40 -14 0 -25 2 -25 4 0 2 17 41 38 87 21 46 52 114
68 151 25 58 33 67 55 68 24 0 31 -12 92 -149z"/>
<path d="M495 465 c-4 -11 -19 -47 -31 -79 -13 -33 -24 -60 -24 -60 0 -1 29 0
64 2 l63 4 -25 51 c-13 29 -28 63 -32 77 -7 23 -8 24 -15 5z m16 -62 c0 -5 2
-18 5 -30 4 -24 -16 -36 -37 -21 -11 7 -11 11 -1 15 6 2 12 13 12 24 0 18 19
28 21 12z"/>
</g>
</svg>
